<mxfile host="app.diagrams.net" modified="2024-03-11T20:05:04.901Z" agent="Mozilla/5.0 (Windows NT 10.0; Win64; x64) AppleWebKit/537.36 (KHTML, like Gecko) Chrome/122.0.0.0 Safari/537.36" etag="UC2hyN-HTc8XY7mHBh4-" version="24.0.2" type="github" pages="3">
  <diagram name="Page-1" id="7a6c530e-6e37-e111-ec74-82921da8cc10">
    <mxGraphModel dx="1114" dy="560" grid="1" gridSize="10" guides="1" tooltips="1" connect="1" arrows="1" fold="1" page="1" pageScale="1.5" pageWidth="1169" pageHeight="826" background="#184380" math="0" shadow="0">
      <root>
        <mxCell id="0" style=";html=1;" />
        <mxCell id="1" style=";html=1;" parent="0" />
        <mxCell id="23046e2b9bb16c14-116" value="Azure Group" style="whiteSpace=wrap;html=1;rounded=1;shadow=0;strokeColor=none;strokeWidth=2;fillColor=#009BFF;fontSize=20;fontColor=#FFFFFF;align=center;arcSize=3;verticalAlign=top;spacingTop=4;" parent="1" vertex="1">
          <mxGeometry x="287" y="217" width="1180" height="550" as="geometry" />
        </mxCell>
        <mxCell id="23046e2b9bb16c14-64" value="Web role instances" style="rounded=1;whiteSpace=wrap;html=1;shadow=0;strokeWidth=2;fillColor=#0072BC;fontSize=12;fontColor=#FFFFFF;align=center;strokeColor=none;arcSize=3;verticalAlign=top;" parent="1" vertex="1">
          <mxGeometry x="1286" y="291" width="150" height="420" as="geometry" />
        </mxCell>
        <mxCell id="23046e2b9bb16c14-27" value="" style="rounded=1;whiteSpace=wrap;html=1;shadow=0;strokeWidth=2;fillColor=#8BC63E;fontSize=12;fontColor=#000000;align=center;strokeColor=none;arcSize=3;" parent="1" vertex="1">
          <mxGeometry x="726" y="291" width="530" height="420" as="geometry" />
        </mxCell>
        <mxCell id="23046e2b9bb16c14-2" value="" style="rounded=1;whiteSpace=wrap;html=1;shadow=0;strokeWidth=2;fillColor=none;fontSize=12;fontColor=#000000;align=center;strokeColor=#FFFFFF;arcSize=10;" parent="1" vertex="1">
          <mxGeometry x="876" y="420" width="160" height="241" as="geometry" />
        </mxCell>
        <mxCell id="23046e2b9bb16c14-54" value="Availability set" style="rounded=1;whiteSpace=wrap;html=1;shadow=0;strokeWidth=2;fillColor=none;fontSize=11;fontColor=#FFFFFF;align=center;strokeColor=#FFFFFF;dashed=1;verticalAlign=top;" parent="1" vertex="1">
          <mxGeometry x="956" y="441" width="70" height="211" as="geometry" />
        </mxCell>
        <mxCell id="23046e2b9bb16c14-28" value="On-premises networks" style="rounded=1;whiteSpace=wrap;html=1;shadow=0;strokeWidth=2;fillColor=#F04D22;fontSize=12;fontColor=#FFFFFF;align=center;strokeColor=none;arcSize=6;verticalAlign=top;" parent="1" vertex="1">
          <mxGeometry x="466" y="378" width="230" height="330" as="geometry" />
        </mxCell>
        <mxCell id="23046e2b9bb16c14-49" value="" style="rounded=1;whiteSpace=wrap;html=1;shadow=0;strokeWidth=2;fillColor=none;fontSize=12;fontColor=#000000;align=center;strokeColor=#FFFFFF;" parent="1" vertex="1">
          <mxGeometry x="486" y="410" width="80" height="218" as="geometry" />
        </mxCell>
        <mxCell id="23046e2b9bb16c14-1" value="" style="rounded=1;whiteSpace=wrap;html=1;shadow=0;strokeWidth=2;fillColor=none;fontSize=12;fontColor=#000000;align=center;strokeColor=#FFFFFF;" parent="1" vertex="1">
          <mxGeometry x="746" y="420" width="110" height="221" as="geometry" />
        </mxCell>
        <mxCell id="24964f25f45c63f1-1" value="" style="verticalLabelPosition=bottom;html=1;verticalAlign=top;strokeColor=none;fillColor=#FFFFFF;shape=mxgraph.azure.computer;rounded=0;shadow=0;fontSize=12;fontColor=#000000;align=center;" parent="1" vertex="1">
          <mxGeometry x="501" y="424" width="50" height="45" as="geometry" />
        </mxCell>
        <mxCell id="24964f25f45c63f1-2" value="" style="verticalLabelPosition=bottom;html=1;verticalAlign=top;strokeColor=none;fillColor=#FFFFFF;shape=mxgraph.azure.computer;rounded=0;shadow=0;fontSize=12;fontColor=#000000;align=center;" parent="1" vertex="1">
          <mxGeometry x="501" y="494" width="50" height="45" as="geometry" />
        </mxCell>
        <mxCell id="24964f25f45c63f1-3" value="" style="verticalLabelPosition=bottom;html=1;verticalAlign=top;strokeColor=none;fillColor=#FFFFFF;shape=mxgraph.azure.computer;rounded=0;shadow=0;fontSize=12;fontColor=#000000;align=center;" parent="1" vertex="1">
          <mxGeometry x="501" y="564" width="50" height="45" as="geometry" />
        </mxCell>
        <mxCell id="23046e2b9bb16c14-73" style="html=1;startArrow=none;startFill=0;startSize=10;endArrow=none;endFill=0;endSize=10;strokeWidth=3;fontSize=11;fontColor=#FFFFFF;strokeColor=#FFFFFF;rounded=0;" parent="1" source="24964f25f45c63f1-5" target="23046e2b9bb16c14-7" edge="1">
          <mxGeometry relative="1" as="geometry" />
        </mxCell>
        <mxCell id="24964f25f45c63f1-5" value="Gateway" style="shadow=0;dashed=0;html=1;strokeColor=none;shape=mxgraph.mscae.enterprise.gateway;fillColor=#FFFFFF;rounded=0;fontSize=12;fontColor=#FFFFFF;align=center;labelPosition=center;verticalLabelPosition=top;verticalAlign=bottom;" parent="1" vertex="1">
          <mxGeometry x="773" y="541" width="50" height="50" as="geometry" />
        </mxCell>
        <mxCell id="24964f25f45c63f1-6" value="" style="shadow=0;dashed=0;html=1;strokeColor=none;shape=mxgraph.mscae.enterprise.lock;fillColor=#FFFFFF;rounded=0;fontSize=12;fontColor=#000000;align=center;" parent="1" vertex="1">
          <mxGeometry x="896" y="436" width="39" height="50" as="geometry" />
        </mxCell>
        <mxCell id="23046e2b9bb16c14-7" value="" style="shadow=0;dashed=0;html=1;strokeColor=none;labelPosition=center;verticalLabelPosition=bottom;verticalAlign=top;shape=mxgraph.mscae.cloud.azure_load_balancer_feature;fillColor=#FFFFFF;rounded=1;fontSize=12;fontColor=#000000;align=center;" parent="1" vertex="1">
          <mxGeometry x="891" y="541" width="50" height="50" as="geometry" />
        </mxCell>
        <mxCell id="23046e2b9bb16c14-75" style="html=1;startArrow=none;startFill=0;startSize=10;endArrow=none;endFill=0;endSize=10;strokeWidth=3;fontSize=11;fontColor=#FFFFFF;entryX=0.793;entryY=0.26;entryPerimeter=0;strokeColor=#FFFFFF;rounded=0;" parent="1" source="23046e2b9bb16c14-29" target="23046e2b9bb16c14-7" edge="1">
          <mxGeometry relative="1" as="geometry" />
        </mxCell>
        <mxCell id="23046e2b9bb16c14-29" value="" style="verticalLabelPosition=bottom;html=1;verticalAlign=top;strokeColor=none;fillColor=#FFFFFF;shape=mxgraph.azure.virtual_machine;rounded=1;shadow=0;fontSize=12;fontColor=#000000;align=center;" parent="1" vertex="1">
          <mxGeometry x="966" y="493" width="50" height="40" as="geometry" />
        </mxCell>
        <mxCell id="23046e2b9bb16c14-76" style="html=1;entryX=1.016;entryY=0.509;entryPerimeter=0;startArrow=none;startFill=0;startSize=10;endArrow=none;endFill=0;endSize=10;strokeWidth=3;fontSize=11;fontColor=#FFFFFF;strokeColor=#FFFFFF;rounded=0;" parent="1" source="23046e2b9bb16c14-30" target="23046e2b9bb16c14-7" edge="1">
          <mxGeometry relative="1" as="geometry" />
        </mxCell>
        <mxCell id="23046e2b9bb16c14-30" value="" style="verticalLabelPosition=bottom;html=1;verticalAlign=top;strokeColor=none;fillColor=#FFFFFF;shape=mxgraph.azure.virtual_machine;rounded=1;shadow=0;fontSize=12;fontColor=#000000;align=center;" parent="1" vertex="1">
          <mxGeometry x="966" y="546" width="50" height="40" as="geometry" />
        </mxCell>
        <mxCell id="23046e2b9bb16c14-77" style="html=1;entryX=0.802;entryY=0.762;entryPerimeter=0;startArrow=none;startFill=0;startSize=10;endArrow=none;endFill=0;endSize=10;strokeWidth=3;fontSize=11;fontColor=#FFFFFF;strokeColor=#FFFFFF;rounded=0;" parent="1" source="23046e2b9bb16c14-31" target="23046e2b9bb16c14-7" edge="1">
          <mxGeometry relative="1" as="geometry" />
        </mxCell>
        <mxCell id="23046e2b9bb16c14-31" value="" style="verticalLabelPosition=bottom;html=1;verticalAlign=top;strokeColor=none;fillColor=#FFFFFF;shape=mxgraph.azure.virtual_machine;rounded=1;shadow=0;fontSize=12;fontColor=#000000;align=center;" parent="1" vertex="1">
          <mxGeometry x="966" y="598" width="50" height="40" as="geometry" />
        </mxCell>
        <mxCell id="23046e2b9bb16c14-48" value="Azure Vnet" style="shadow=0;dashed=0;html=1;strokeColor=none;fillColor=#FFFFFF;labelPosition=center;verticalLabelPosition=bottom;verticalAlign=top;shape=mxgraph.office.clouds.azure;rounded=1;fontSize=12;fontColor=#FFFFFF;align=center;" parent="1" vertex="1">
          <mxGeometry x="756" y="311" width="83" height="53" as="geometry" />
        </mxCell>
        <mxCell id="23046e2b9bb16c14-50" value="" style="rounded=1;whiteSpace=wrap;html=1;shadow=0;strokeWidth=2;fillColor=none;fontSize=12;fontColor=#000000;align=center;strokeColor=#FFFFFF;" parent="1" vertex="1">
          <mxGeometry x="596" y="409" width="80" height="218" as="geometry" />
        </mxCell>
        <mxCell id="23046e2b9bb16c14-51" value="" style="verticalLabelPosition=bottom;html=1;verticalAlign=top;strokeColor=none;fillColor=#FFFFFF;shape=mxgraph.azure.computer;rounded=0;shadow=0;fontSize=12;fontColor=#000000;align=center;" parent="1" vertex="1">
          <mxGeometry x="611" y="423" width="50" height="45" as="geometry" />
        </mxCell>
        <mxCell id="23046e2b9bb16c14-52" value="" style="verticalLabelPosition=bottom;html=1;verticalAlign=top;strokeColor=none;fillColor=#FFFFFF;shape=mxgraph.azure.computer;rounded=0;shadow=0;fontSize=12;fontColor=#000000;align=center;" parent="1" vertex="1">
          <mxGeometry x="611" y="493" width="50" height="45" as="geometry" />
        </mxCell>
        <mxCell id="23046e2b9bb16c14-53" value="" style="verticalLabelPosition=bottom;html=1;verticalAlign=top;strokeColor=none;fillColor=#FFFFFF;shape=mxgraph.azure.computer;rounded=0;shadow=0;fontSize=12;fontColor=#000000;align=center;" parent="1" vertex="1">
          <mxGeometry x="611" y="563" width="50" height="45" as="geometry" />
        </mxCell>
        <mxCell id="23046e2b9bb16c14-71" style="edgeStyle=orthogonalEdgeStyle;html=1;startArrow=none;startFill=0;startSize=10;endArrow=none;endFill=0;endSize=10;strokeWidth=3;fontSize=11;fontColor=#FFFFFF;strokeColor=#FFFFFF;dashed=1;rounded=0;" parent="1" source="24964f25f45c63f1-4" target="24964f25f45c63f1-5" edge="1">
          <mxGeometry relative="1" as="geometry">
            <Array as="points">
              <mxPoint x="581" y="730" />
              <mxPoint x="798" y="730" />
            </Array>
          </mxGeometry>
        </mxCell>
        <mxCell id="24964f25f45c63f1-4" value="Gateway" style="shadow=0;dashed=0;html=1;strokeColor=none;shape=mxgraph.mscae.enterprise.gateway;fillColor=#FFFFFF;rounded=0;fontSize=12;fontColor=#FFFFFF;align=center;labelPosition=center;verticalLabelPosition=top;verticalAlign=bottom;" parent="1" vertex="1">
          <mxGeometry x="556" y="648" width="50" height="50" as="geometry" />
        </mxCell>
        <mxCell id="23046e2b9bb16c14-55" value="" style="rounded=1;whiteSpace=wrap;html=1;shadow=0;strokeWidth=2;fillColor=none;fontSize=12;fontColor=#000000;align=center;strokeColor=#FFFFFF;arcSize=9;" parent="1" vertex="1">
          <mxGeometry x="1071" y="420" width="160" height="241" as="geometry" />
        </mxCell>
        <mxCell id="23046e2b9bb16c14-56" value="&lt;span&gt;Availability set&lt;/span&gt;" style="rounded=1;whiteSpace=wrap;html=1;shadow=0;strokeWidth=2;fillColor=none;fontSize=11;fontColor=#FFFFFF;align=center;strokeColor=#FFFFFF;dashed=1;verticalAlign=top;" parent="1" vertex="1">
          <mxGeometry x="1151" y="441" width="70" height="211" as="geometry" />
        </mxCell>
        <mxCell id="23046e2b9bb16c14-57" value="" style="shadow=0;dashed=0;html=1;strokeColor=none;shape=mxgraph.mscae.enterprise.lock;fillColor=#FFFFFF;rounded=0;fontSize=12;fontColor=#000000;align=center;" parent="1" vertex="1">
          <mxGeometry x="1091" y="436" width="39" height="50" as="geometry" />
        </mxCell>
        <mxCell id="23046e2b9bb16c14-74" style="html=1;startArrow=none;startFill=0;startSize=10;endArrow=none;endFill=0;endSize=10;strokeWidth=3;fontSize=11;fontColor=#FFFFFF;strokeColor=#FFFFFF;rounded=0;edgeStyle=elbowEdgeStyle;elbow=vertical;" parent="1" source="23046e2b9bb16c14-58" target="23046e2b9bb16c14-2" edge="1">
          <mxGeometry relative="1" as="geometry" />
        </mxCell>
        <mxCell id="23046e2b9bb16c14-78" style="edgeStyle=orthogonalEdgeStyle;html=1;startArrow=none;startFill=0;startSize=10;endArrow=none;endFill=0;endSize=10;strokeWidth=3;fontSize=11;fontColor=#FFFFFF;strokeColor=#FFFFFF;rounded=0;" parent="1" source="23046e2b9bb16c14-58" target="23046e2b9bb16c14-60" edge="1">
          <mxGeometry relative="1" as="geometry" />
        </mxCell>
        <mxCell id="23046e2b9bb16c14-79" style="html=1;startArrow=none;startFill=0;startSize=10;endArrow=none;endFill=0;endSize=10;strokeWidth=3;fontSize=11;fontColor=#FFFFFF;strokeColor=#FFFFFF;rounded=0;exitX=0.796;exitY=0.241;exitPerimeter=0;" parent="1" source="23046e2b9bb16c14-58" target="23046e2b9bb16c14-59" edge="1">
          <mxGeometry relative="1" as="geometry" />
        </mxCell>
        <mxCell id="23046e2b9bb16c14-80" style="html=1;startArrow=none;startFill=0;startSize=10;endArrow=none;endFill=0;endSize=10;strokeWidth=3;fontSize=11;fontColor=#FFFFFF;strokeColor=#FFFFFF;rounded=0;exitX=0.789;exitY=0.767;exitPerimeter=0;" parent="1" source="23046e2b9bb16c14-58" target="23046e2b9bb16c14-61" edge="1">
          <mxGeometry relative="1" as="geometry" />
        </mxCell>
        <mxCell id="23046e2b9bb16c14-58" value="" style="shadow=0;dashed=0;html=1;strokeColor=none;labelPosition=center;verticalLabelPosition=bottom;verticalAlign=top;shape=mxgraph.mscae.cloud.azure_load_balancer_feature;fillColor=#FFFFFF;rounded=1;fontSize=12;fontColor=#000000;align=center;" parent="1" vertex="1">
          <mxGeometry x="1086" y="541" width="50" height="50" as="geometry" />
        </mxCell>
        <mxCell id="23046e2b9bb16c14-59" value="" style="verticalLabelPosition=bottom;html=1;verticalAlign=top;strokeColor=none;fillColor=#FFFFFF;shape=mxgraph.azure.virtual_machine;rounded=1;shadow=0;fontSize=12;fontColor=#000000;align=center;" parent="1" vertex="1">
          <mxGeometry x="1161" y="493" width="50" height="40" as="geometry" />
        </mxCell>
        <mxCell id="23046e2b9bb16c14-60" value="" style="verticalLabelPosition=bottom;html=1;verticalAlign=top;strokeColor=none;fillColor=#FFFFFF;shape=mxgraph.azure.virtual_machine;rounded=1;shadow=0;fontSize=12;fontColor=#000000;align=center;" parent="1" vertex="1">
          <mxGeometry x="1161" y="546" width="50" height="40" as="geometry" />
        </mxCell>
        <mxCell id="23046e2b9bb16c14-61" value="" style="verticalLabelPosition=bottom;html=1;verticalAlign=top;strokeColor=none;fillColor=#FFFFFF;shape=mxgraph.azure.virtual_machine;rounded=1;shadow=0;fontSize=12;fontColor=#000000;align=center;" parent="1" vertex="1">
          <mxGeometry x="1161" y="598" width="50" height="40" as="geometry" />
        </mxCell>
        <mxCell id="23046e2b9bb16c14-69" style="edgeStyle=orthogonalEdgeStyle;html=1;startArrow=none;startFill=0;startSize=10;endArrow=none;endFill=0;endSize=10;strokeWidth=3;fontSize=11;fontColor=#FFFFFF;strokeColor=#FFFFFF;dashed=1;rounded=0;" parent="1" source="23046e2b9bb16c14-62" target="23046e2b9bb16c14-63" edge="1">
          <mxGeometry relative="1" as="geometry" />
        </mxCell>
        <mxCell id="23046e2b9bb16c14-62" value="Firewall" style="shadow=0;dashed=0;html=1;strokeColor=none;labelPosition=right;verticalLabelPosition=middle;verticalAlign=middle;shape=mxgraph.office.concepts.firewall;fillColor=#FFFFFF;rounded=1;fontSize=11;fontColor=#FFFFFF;align=left;spacingLeft=5;" parent="1" vertex="1">
          <mxGeometry x="328" y="475" width="47" height="43" as="geometry" />
        </mxCell>
        <mxCell id="23046e2b9bb16c14-70" style="edgeStyle=orthogonalEdgeStyle;html=1;startArrow=none;startFill=0;startSize=10;endArrow=none;endFill=0;endSize=10;strokeWidth=3;fontSize=11;fontColor=#FFFFFF;strokeColor=#FFFFFF;dashed=1;rounded=0;" parent="1" source="24964f25f45c63f1-4" target="23046e2b9bb16c14-68" edge="1">
          <mxGeometry relative="1" as="geometry">
            <mxPoint x="606" y="730" as="sourcePoint" />
            <Array as="points">
              <mxPoint x="581" y="730" />
              <mxPoint x="1361" y="730" />
            </Array>
          </mxGeometry>
        </mxCell>
        <mxCell id="23046e2b9bb16c14-72" style="edgeStyle=orthogonalEdgeStyle;html=1;startArrow=none;startFill=0;startSize=10;endArrow=none;endFill=0;endSize=10;strokeWidth=3;fontSize=11;fontColor=#FFFFFF;strokeColor=#FFFFFF;dashed=1;rounded=0;" parent="1" source="23046e2b9bb16c14-63" target="24964f25f45c63f1-4" edge="1">
          <mxGeometry relative="1" as="geometry">
            <Array as="points">
              <mxPoint x="351" y="730" />
              <mxPoint x="581" y="730" />
            </Array>
          </mxGeometry>
        </mxCell>
        <mxCell id="23046e2b9bb16c14-63" value="Windows&lt;div&gt;Azure&lt;/div&gt;&lt;div&gt;Load&lt;/div&gt;&lt;div&gt;Balancer&lt;/div&gt;" style="verticalLabelPosition=middle;html=1;verticalAlign=middle;strokeColor=none;fillColor=#FFFFFF;shape=mxgraph.azure.azure_load_balancer;rounded=1;shadow=0;dashed=1;fontSize=11;fontColor=#FFFFFF;align=left;labelPosition=right;spacingLeft=5;" parent="1" vertex="1">
          <mxGeometry x="326" y="593" width="50" height="35" as="geometry" />
        </mxCell>
        <mxCell id="23046e2b9bb16c14-65" value="" style="shadow=0;dashed=0;html=1;strokeColor=none;shape=mxgraph.mscae.enterprise.web;fillColor=#FFFFFF;rounded=1;fontSize=11;fontColor=#FFFFFF;align=center;" parent="1" vertex="1">
          <mxGeometry x="1336" y="531" width="50" height="50" as="geometry" />
        </mxCell>
        <mxCell id="23046e2b9bb16c14-66" value="" style="shadow=0;dashed=0;html=1;strokeColor=none;shape=mxgraph.mscae.enterprise.web;fillColor=#FFFFFF;rounded=1;fontSize=11;fontColor=#FFFFFF;align=center;" parent="1" vertex="1">
          <mxGeometry x="1336" y="450" width="50" height="50" as="geometry" />
        </mxCell>
        <mxCell id="23046e2b9bb16c14-67" value="" style="shadow=0;dashed=0;html=1;strokeColor=none;shape=mxgraph.mscae.enterprise.web;fillColor=#FFFFFF;rounded=1;fontSize=11;fontColor=#FFFFFF;align=center;" parent="1" vertex="1">
          <mxGeometry x="1336" y="370" width="50" height="50" as="geometry" />
        </mxCell>
        <mxCell id="23046e2b9bb16c14-117" style="edgeStyle=orthogonalEdgeStyle;rounded=0;elbow=vertical;html=1;startArrow=none;startFill=0;startSize=10;endArrow=none;endFill=0;endSize=10;strokeColor=#FFFFFF;strokeWidth=3;fontSize=20;fontColor=#FFFFFF;entryX=0.004;entryY=0.516;entryPerimeter=0;" parent="1" source="23046e2b9bb16c14-68" target="23046e2b9bb16c14-65" edge="1">
          <mxGeometry relative="1" as="geometry">
            <mxPoint x="1520" y="590" as="targetPoint" />
            <Array as="points">
              <mxPoint x="1326" y="673" />
              <mxPoint x="1326" y="557" />
            </Array>
          </mxGeometry>
        </mxCell>
        <mxCell id="23046e2b9bb16c14-119" style="edgeStyle=orthogonalEdgeStyle;rounded=0;elbow=vertical;html=1;entryX=-0.002;entryY=0.494;entryPerimeter=0;startArrow=none;startFill=0;startSize=10;endArrow=none;endFill=0;endSize=10;strokeColor=#FFFFFF;strokeWidth=3;fontSize=20;fontColor=#FFFFFF;" parent="1" source="23046e2b9bb16c14-68" target="23046e2b9bb16c14-67" edge="1">
          <mxGeometry relative="1" as="geometry">
            <Array as="points">
              <mxPoint x="1326" y="673" />
              <mxPoint x="1326" y="395" />
            </Array>
          </mxGeometry>
        </mxCell>
        <mxCell id="23046e2b9bb16c14-68" value="Gateway" style="shadow=0;dashed=0;html=1;strokeColor=none;shape=mxgraph.mscae.enterprise.gateway;fillColor=#FFFFFF;rounded=0;fontSize=12;fontColor=#FFFFFF;align=center;labelPosition=center;verticalLabelPosition=top;verticalAlign=bottom;" parent="1" vertex="1">
          <mxGeometry x="1336" y="648" width="50" height="50" as="geometry" />
        </mxCell>
        <mxCell id="23046e2b9bb16c14-81" value="A" style="text;html=1;strokeColor=none;fillColor=none;align=center;verticalAlign=middle;whiteSpace=wrap;rounded=1;shadow=0;fontSize=11;fontColor=#FFFFFF;fontStyle=1" parent="1" vertex="1">
          <mxGeometry x="666" y="678" width="20" height="20" as="geometry" />
        </mxCell>
        <mxCell id="23046e2b9bb16c14-82" value="B" style="text;html=1;strokeColor=none;fillColor=none;align=center;verticalAlign=middle;whiteSpace=wrap;rounded=1;shadow=0;fontSize=11;fontColor=#FFFFFF;fontStyle=1" parent="1" vertex="1">
          <mxGeometry x="1226" y="678" width="20" height="20" as="geometry" />
        </mxCell>
        <mxCell id="23046e2b9bb16c14-83" value="C" style="text;html=1;strokeColor=none;fillColor=none;align=center;verticalAlign=middle;whiteSpace=wrap;rounded=1;shadow=0;fontSize=11;fontColor=#FFFFFF;fontStyle=1" parent="1" vertex="1">
          <mxGeometry x="1406" y="680" width="20" height="20" as="geometry" />
        </mxCell>
        <mxCell id="23046e2b9bb16c14-84" value="" style="rounded=0;whiteSpace=wrap;html=1;shadow=0;strokeWidth=2;fillColor=#F04D22;fontSize=12;fontColor=#FFFFFF;align=center;strokeColor=none;arcSize=6;verticalAlign=top;" parent="1" vertex="1">
          <mxGeometry x="326" y="820" width="300" height="102" as="geometry" />
        </mxCell>
        <mxCell id="23046e2b9bb16c14-85" value="" style="rounded=0;whiteSpace=wrap;html=1;shadow=0;strokeWidth=2;fillColor=#8BC63E;fontSize=12;fontColor=#FFFFFF;align=center;strokeColor=none;arcSize=6;verticalAlign=top;" parent="1" vertex="1">
          <mxGeometry x="626" y="820" width="400" height="102" as="geometry" />
        </mxCell>
        <mxCell id="23046e2b9bb16c14-86" value="" style="rounded=0;whiteSpace=wrap;html=1;shadow=0;strokeWidth=2;fillColor=#0072BC;fontSize=12;fontColor=#FFFFFF;align=center;strokeColor=none;arcSize=3;verticalAlign=top;" parent="1" vertex="1">
          <mxGeometry x="1026" y="820" width="390" height="102" as="geometry" />
        </mxCell>
        <mxCell id="23046e2b9bb16c14-87" value="A" style="text;html=1;strokeColor=none;fillColor=none;align=center;verticalAlign=middle;whiteSpace=wrap;rounded=1;shadow=0;fontSize=30;fontColor=#FFFFFF;fontStyle=1" parent="1" vertex="1">
          <mxGeometry x="326" y="853" width="40" height="35" as="geometry" />
        </mxCell>
        <mxCell id="23046e2b9bb16c14-88" value="B" style="text;html=1;strokeColor=none;fillColor=none;align=center;verticalAlign=middle;whiteSpace=wrap;rounded=1;shadow=0;fontSize=30;fontColor=#FFFFFF;fontStyle=1" parent="1" vertex="1">
          <mxGeometry x="626" y="853" width="40" height="35" as="geometry" />
        </mxCell>
        <mxCell id="23046e2b9bb16c14-89" value="C" style="text;html=1;strokeColor=none;fillColor=none;align=center;verticalAlign=middle;whiteSpace=wrap;rounded=1;shadow=0;fontSize=30;fontColor=#FFFFFF;fontStyle=1" parent="1" vertex="1">
          <mxGeometry x="1026" y="853" width="40" height="35" as="geometry" />
        </mxCell>
        <mxCell id="23046e2b9bb16c14-90" value="Computer" style="verticalLabelPosition=top;html=1;verticalAlign=bottom;strokeColor=none;fillColor=#FFFFFF;shape=mxgraph.azure.computer;rounded=0;shadow=0;fontSize=10;fontColor=#FFFFFF;align=center;labelPosition=center;" parent="1" vertex="1">
          <mxGeometry x="393" y="860" width="50" height="45" as="geometry" />
        </mxCell>
        <mxCell id="23046e2b9bb16c14-91" value="VHD" style="shadow=0;html=1;strokeColor=none;fillColor=#FFFFFF;labelPosition=center;verticalLabelPosition=top;verticalAlign=bottom;shape=mxgraph.azure.vhd;rounded=0;fontSize=10;fontColor=#FFFFFF;align=center;" parent="1" vertex="1">
          <mxGeometry x="483" y="857" width="40" height="50" as="geometry" />
        </mxCell>
        <mxCell id="23046e2b9bb16c14-92" value="+" style="text;html=1;strokeColor=none;fillColor=none;align=center;verticalAlign=middle;whiteSpace=wrap;rounded=1;shadow=0;fontSize=30;fontColor=#FFFFFF;fontStyle=1" parent="1" vertex="1">
          <mxGeometry x="443" y="865" width="40" height="35" as="geometry" />
        </mxCell>
        <mxCell id="23046e2b9bb16c14-93" value="+" style="text;html=1;strokeColor=none;fillColor=none;align=center;verticalAlign=middle;whiteSpace=wrap;rounded=1;shadow=0;fontSize=30;fontColor=#FFFFFF;fontStyle=1" parent="1" vertex="1">
          <mxGeometry x="523" y="865" width="40" height="35" as="geometry" />
        </mxCell>
        <mxCell id="23046e2b9bb16c14-94" value="Server&lt;div&gt;Directory&lt;/div&gt;" style="shadow=0;html=1;strokeColor=none;shape=mxgraph.mscae.enterprise.server_directory;fillColor=#FFFFFF;rounded=0;fontSize=10;fontColor=#FFFFFF;align=center;verticalAlign=bottom;labelPosition=center;verticalLabelPosition=top;" parent="1" vertex="1">
          <mxGeometry x="563" y="858" width="36" height="50" as="geometry" />
        </mxCell>
        <mxCell id="23046e2b9bb16c14-95" value="VM Feature" style="shadow=0;html=1;strokeColor=none;fillColor=#FFFFFF;labelPosition=center;verticalLabelPosition=top;verticalAlign=bottom;shape=mxgraph.azure.virtual_machine_feature;rounded=0;fontSize=10;fontColor=#FFFFFF;align=center;" parent="1" vertex="1">
          <mxGeometry x="684" y="861" width="50" height="45" as="geometry" />
        </mxCell>
        <mxCell id="23046e2b9bb16c14-96" value="+" style="text;html=1;strokeColor=none;fillColor=none;align=center;verticalAlign=middle;whiteSpace=wrap;rounded=1;shadow=0;fontSize=30;fontColor=#FFFFFF;fontStyle=1" parent="1" vertex="1">
          <mxGeometry x="734" y="866" width="40" height="35" as="geometry" />
        </mxCell>
        <mxCell id="23046e2b9bb16c14-97" value="VHD" style="shadow=0;html=1;strokeColor=none;fillColor=#FFFFFF;labelPosition=center;verticalLabelPosition=top;verticalAlign=bottom;shape=mxgraph.azure.vhd;rounded=0;fontSize=10;fontColor=#FFFFFF;align=center;" parent="1" vertex="1">
          <mxGeometry x="774" y="858" width="40" height="50" as="geometry" />
        </mxCell>
        <mxCell id="23046e2b9bb16c14-98" value="3rd Party&lt;div&gt;Integration&lt;/div&gt;" style="shadow=0;html=1;strokeColor=none;fillColor=#FFFFFF;labelPosition=center;verticalLabelPosition=top;verticalAlign=bottom;shape=mxgraph.office.communications.3rd_party_integration;rounded=0;fontSize=10;fontColor=#FFFFFF;align=center;" parent="1" vertex="1">
          <mxGeometry x="854" y="856" width="54" height="55" as="geometry" />
        </mxCell>
        <mxCell id="23046e2b9bb16c14-99" value="+" style="text;html=1;strokeColor=none;fillColor=none;align=center;verticalAlign=middle;whiteSpace=wrap;rounded=1;shadow=0;fontSize=30;fontColor=#FFFFFF;fontStyle=1" parent="1" vertex="1">
          <mxGeometry x="814" y="866" width="40" height="35" as="geometry" />
        </mxCell>
        <mxCell id="23046e2b9bb16c14-100" value="+" style="text;html=1;strokeColor=none;fillColor=none;align=center;verticalAlign=middle;whiteSpace=wrap;rounded=1;shadow=0;fontSize=30;fontColor=#FFFFFF;fontStyle=1" parent="1" vertex="1">
          <mxGeometry x="908" y="866" width="40" height="35" as="geometry" />
        </mxCell>
        <mxCell id="23046e2b9bb16c14-101" value="Data Migration&lt;div&gt;Wizard&lt;/div&gt;" style="shadow=0;html=1;strokeColor=none;shape=mxgraph.mscae.intune.data_migration_wizard;fillColor=#FFFFFF;rounded=0;fontSize=10;fontColor=#FFFFFF;align=center;verticalAlign=bottom;labelPosition=center;verticalLabelPosition=top;" parent="1" vertex="1">
          <mxGeometry x="948" y="859" width="50" height="48" as="geometry" />
        </mxCell>
        <mxCell id="23046e2b9bb16c14-102" value="VM Feature" style="shadow=0;html=1;strokeColor=none;fillColor=#FFFFFF;labelPosition=center;verticalLabelPosition=top;verticalAlign=bottom;shape=mxgraph.azure.virtual_machine_feature;rounded=0;fontSize=10;fontColor=#FFFFFF;align=center;" parent="1" vertex="1">
          <mxGeometry x="1086" y="861" width="50" height="45" as="geometry" />
        </mxCell>
        <mxCell id="23046e2b9bb16c14-103" value="" style="line;strokeWidth=2;direction=south;html=1;rounded=0;shadow=0;fillColor=none;fontSize=30;fontColor=#FFFFFF;align=center;strokeColor=#FFFFFF;" parent="1" vertex="1">
          <mxGeometry x="366" y="820" width="10" height="102" as="geometry" />
        </mxCell>
        <mxCell id="23046e2b9bb16c14-104" value="" style="line;strokeWidth=2;direction=south;html=1;rounded=0;shadow=0;fillColor=none;fontSize=30;fontColor=#FFFFFF;align=center;strokeColor=#FFFFFF;" parent="1" vertex="1">
          <mxGeometry x="666" y="820" width="10" height="102" as="geometry" />
        </mxCell>
        <mxCell id="23046e2b9bb16c14-105" value="" style="line;strokeWidth=2;direction=south;html=1;rounded=0;shadow=0;fillColor=none;fontSize=30;fontColor=#FFFFFF;align=center;strokeColor=#FFFFFF;" parent="1" vertex="1">
          <mxGeometry x="1066" y="820" width="10" height="102" as="geometry" />
        </mxCell>
        <mxCell id="23046e2b9bb16c14-106" value="+" style="text;html=1;strokeColor=none;fillColor=none;align=center;verticalAlign=middle;whiteSpace=wrap;rounded=1;shadow=0;fontSize=30;fontColor=#FFFFFF;fontStyle=1" parent="1" vertex="1">
          <mxGeometry x="1136" y="866" width="40" height="35" as="geometry" />
        </mxCell>
        <mxCell id="23046e2b9bb16c14-107" value="Azure&lt;div&gt;Website&lt;/div&gt;" style="verticalLabelPosition=top;html=1;verticalAlign=bottom;strokeColor=none;fillColor=#FFFFFF;shape=mxgraph.azure.azure_website;rounded=0;shadow=0;fontSize=10;fontColor=#FFFFFF;align=center;labelPosition=center;" parent="1" vertex="1">
          <mxGeometry x="1176" y="858" width="50" height="50" as="geometry" />
        </mxCell>
        <mxCell id="23046e2b9bb16c14-108" value="+" style="text;html=1;strokeColor=none;fillColor=none;align=center;verticalAlign=middle;whiteSpace=wrap;rounded=1;shadow=0;fontSize=30;fontColor=#FFFFFF;fontStyle=1" parent="1" vertex="1">
          <mxGeometry x="1226" y="866" width="40" height="35" as="geometry" />
        </mxCell>
        <mxCell id="23046e2b9bb16c14-109" value="MySQL&lt;div&gt;Database&lt;/div&gt;" style="verticalLabelPosition=top;html=1;verticalAlign=bottom;strokeColor=none;fillColor=#FFFFFF;shape=mxgraph.azure.mysql_database;rounded=0;shadow=0;fontSize=10;fontColor=#FFFFFF;align=center;labelPosition=center;" parent="1" vertex="1">
          <mxGeometry x="1266" y="859" width="37.5" height="50" as="geometry" />
        </mxCell>
        <mxCell id="23046e2b9bb16c14-110" value="+" style="text;html=1;strokeColor=none;fillColor=none;align=center;verticalAlign=middle;whiteSpace=wrap;rounded=1;shadow=0;fontSize=30;fontColor=#FFFFFF;fontStyle=1" parent="1" vertex="1">
          <mxGeometry x="1304" y="866" width="40" height="35" as="geometry" />
        </mxCell>
        <mxCell id="23046e2b9bb16c14-111" value="Azure&lt;div&gt;Storage&lt;/div&gt;" style="shadow=0;html=1;strokeColor=none;labelPosition=center;verticalLabelPosition=top;verticalAlign=bottom;shape=mxgraph.mscae.cloud.azure_storage;fillColor=#FFFFFF;rounded=0;fontSize=10;fontColor=#FFFFFF;align=center;" parent="1" vertex="1">
          <mxGeometry x="1344" y="862" width="50" height="43" as="geometry" />
        </mxCell>
        <mxCell id="23046e2b9bb16c14-113" value="Title" style="text;strokeColor=none;fillColor=none;html=1;fontSize=24;fontStyle=1;verticalAlign=middle;align=center;rounded=0;shadow=0;fontColor=#FFFFFF;" parent="1" vertex="1">
          <mxGeometry x="120" y="40" width="1510" height="40" as="geometry" />
        </mxCell>
        <mxCell id="23046e2b9bb16c14-114" value="Subtitle" style="text;html=1;strokeColor=none;fillColor=none;align=center;verticalAlign=middle;whiteSpace=wrap;rounded=0;shadow=0;fontSize=10;fontColor=#009BFF;" parent="1" vertex="1">
          <mxGeometry x="114" y="90" width="1526" height="20" as="geometry" />
        </mxCell>
        <mxCell id="23046e2b9bb16c14-115" value="&lt;h1&gt;Heading&lt;/h1&gt;&lt;p&gt;Lorem ipsum dolor sit amet, consectetur adipisicing elit, sed do eiusmod tempor incididunt ut labore et dolore magna aliqua.&lt;/p&gt;" style="text;html=1;strokeColor=none;fillColor=none;spacing=5;spacingTop=-20;whiteSpace=wrap;overflow=hidden;rounded=0;shadow=0;fontSize=10;fontColor=#FFFFFF;align=left;" parent="1" vertex="1">
          <mxGeometry x="323" y="952" width="1041" height="70" as="geometry" />
        </mxCell>
        <mxCell id="23046e2b9bb16c14-118" style="edgeStyle=orthogonalEdgeStyle;rounded=0;elbow=vertical;html=1;startArrow=none;startFill=0;startSize=10;endArrow=none;endFill=0;endSize=10;strokeColor=#FFFFFF;strokeWidth=3;fontSize=20;fontColor=#FFFFFF;entryX=-0.009;entryY=0.502;entryPerimeter=0;" parent="1" source="23046e2b9bb16c14-68" target="23046e2b9bb16c14-66" edge="1">
          <mxGeometry relative="1" as="geometry">
            <mxPoint x="1346.3333333333333" y="566.6666666666666" as="targetPoint" />
            <mxPoint x="1371" y="658" as="sourcePoint" />
            <Array as="points">
              <mxPoint x="1326" y="673" />
              <mxPoint x="1326" y="475" />
            </Array>
          </mxGeometry>
        </mxCell>
      </root>
    </mxGraphModel>
  </diagram>
  <diagram id="cvehKg6R0PCHSddbzMmA" name="Page-2">
    <mxGraphModel dx="1941" dy="560" grid="1" gridSize="10" guides="1" tooltips="1" connect="1" arrows="1" fold="1" page="1" pageScale="1" pageWidth="827" pageHeight="1169" math="0" shadow="0">
      <root>
        <mxCell id="0" />
        <mxCell id="1" parent="0" />
        <mxCell id="SliKgruhRy5jez4xbi1P-90" value="" style="group" parent="1" vertex="1" connectable="0">
          <mxGeometry x="-450" y="416" width="250" height="263" as="geometry" />
        </mxCell>
        <mxCell id="wVpr-9VvbVRUstRmstYV-16" value="On-premise Compensar" style="rounded=0;whiteSpace=wrap;html=1;verticalAlign=top;fontStyle=1;fontSize=14;align=center;fillColor=#ffe6cc;strokeColor=#d79b00;" parent="SliKgruhRy5jez4xbi1P-90" vertex="1">
          <mxGeometry width="250" height="263" as="geometry" />
        </mxCell>
        <mxCell id="wVpr-9VvbVRUstRmstYV-25" value="" style="image;sketch=0;aspect=fixed;html=1;points=[];align=center;fontSize=12;image=img/lib/mscae/Exchange_On_premises_Access.svg;" parent="SliKgruhRy5jez4xbi1P-90" vertex="1">
          <mxGeometry y="193" width="40.6" height="70" as="geometry" />
        </mxCell>
        <mxCell id="SliKgruhRy5jez4xbi1P-92" value="" style="group" parent="SliKgruhRy5jez4xbi1P-90" vertex="1" connectable="0">
          <mxGeometry x="110" y="93" width="120" height="150" as="geometry" />
        </mxCell>
        <mxCell id="wVpr-9VvbVRUstRmstYV-17" value="" style="rounded=1;whiteSpace=wrap;html=1;dashed=1;fillColor=#dae8fc;strokeColor=#6c8ebf;" parent="SliKgruhRy5jez4xbi1P-92" vertex="1">
          <mxGeometry width="120" height="150" as="geometry" />
        </mxCell>
        <mxCell id="wVpr-9VvbVRUstRmstYV-18" value="&lt;div&gt;&lt;br&gt;&lt;/div&gt;&lt;div&gt;&lt;br&gt;&lt;/div&gt;&lt;div&gt;&lt;br&gt;&lt;/div&gt;&lt;div&gt;&lt;span style=&quot;background-color: initial;&quot;&gt;&lt;br&gt;&lt;/span&gt;&lt;/div&gt;&lt;div style=&quot;&quot;&gt;&lt;span style=&quot;background-color: initial;&quot;&gt;&lt;br&gt;&lt;br&gt;Comclientes - nodo lectura&lt;/span&gt;&lt;br&gt;&lt;/div&gt;" style="strokeWidth=2;html=1;shape=mxgraph.flowchart.database;whiteSpace=wrap;align=center;" parent="SliKgruhRy5jez4xbi1P-92" vertex="1">
          <mxGeometry x="40" y="30" width="40" height="40" as="geometry" />
        </mxCell>
        <mxCell id="wVpr-9VvbVRUstRmstYV-12" value="" style="group;align=left;dashed=1;" parent="1" vertex="1" connectable="0">
          <mxGeometry x="-32.599999999999994" y="40" width="1590" height="1040" as="geometry" />
        </mxCell>
        <mxCell id="wVpr-9VvbVRUstRmstYV-3" value="&lt;span style=&quot;white-space: pre;&quot;&gt;&#x9;&lt;/span&gt;&lt;span style=&quot;white-space: pre;&quot;&gt;&#x9;&lt;/span&gt;Azure Suscription - Compensar_Corp_Azure_[Env]_I" style="rounded=0;whiteSpace=wrap;html=1;verticalAlign=top;align=left;fontStyle=1;strokeColor=#d6b656;fillColor=#fff2cc;" parent="wVpr-9VvbVRUstRmstYV-12" vertex="1">
          <mxGeometry width="1590" height="940" as="geometry" />
        </mxCell>
        <mxCell id="wVpr-9VvbVRUstRmstYV-13" value="" style="group;align=center;" parent="wVpr-9VvbVRUstRmstYV-12" vertex="1" connectable="0">
          <mxGeometry x="52.6" y="80" width="1371.54" height="794" as="geometry" />
        </mxCell>
        <mxCell id="wVpr-9VvbVRUstRmstYV-9" value="&amp;nbsp; &amp;nbsp; &amp;nbsp; &amp;nbsp; &amp;nbsp; &amp;nbsp; &amp;nbsp; &amp;nbsp; &amp;nbsp; &amp;nbsp; &amp;nbsp;&lt;b&gt;Resource Group -&amp;nbsp;rg-gclint-syncro-stream-[env]-i&lt;/b&gt;" style="rounded=0;whiteSpace=wrap;html=1;horizontal=1;align=left;verticalAlign=top;container=0;" parent="wVpr-9VvbVRUstRmstYV-13" vertex="1">
          <mxGeometry width="1060" height="680" as="geometry" />
        </mxCell>
        <mxCell id="wVpr-9VvbVRUstRmstYV-8" value="&lt;span style=&quot;color: rgba(0, 0, 0, 0); font-family: monospace; font-size: 0px; text-align: start; background-color: rgb(251, 251, 251);&quot;&gt;%3CmxGraphModel%3E%3Croot%3E%3CmxCell%20id%3D%220%22%2F%3E%3CmxCell%20id%3D%221%22%20parent%3D%220%22%2F%3E%3CmxCell%20id%3D%222%22%20value%3D%22%26amp%3Bnbsp%3B%20%26amp%3Bnbsp%3B%20%26amp%3Bnbsp%3B%20%26amp%3Bnbsp%3B%20%26amp%3Bnbsp%3B%20%26amp%3Bnbsp%3B%20%26amp%3Bnbsp%3B%20%26amp%3Bnbsp%3B%20%26amp%3Bnbsp%3B%20%26amp%3Bnbsp%3B%20%26amp%3Bnbsp%3B%26lt%3Bb%26gt%3BResource%20Group%20-%26amp%3Bnbsp%3Brg-gclint-syncro-stream-%5Benv%5D-i%26lt%3B%2Fb%26gt%3B%22%20style%3D%22rounded%3D0%3BwhiteSpace%3Dwrap%3Bhtml%3D1%3Bhorizontal%3D1%3Balign%3Dleft%3BverticalAlign%3Dtop%3Bcontainer%3D0%3B%22%20vertex%3D%221%22%20parent%3D%221%22%3E%3CmxGeometry%20x%3D%2220.000000000000007%22%20y%3D%22120%22%20width%3D%221060%22%20height%3D%22680%22%20as%3D%22geometry%22%2F%3E%3C%2FmxCell%3E%3C%2Froot%3E%3C%2FmxGraphModel%3E&lt;/span&gt;" style="image;sketch=0;aspect=fixed;html=1;points=[];align=center;fontSize=12;image=img/lib/mscae/ResourceGroup.svg;" parent="wVpr-9VvbVRUstRmstYV-13" vertex="1">
          <mxGeometry x="11.72339910250018" y="9.214974000000002" width="44.57904975045071" height="35.656820930706076" as="geometry" />
        </mxCell>
        <mxCell id="wVpr-9VvbVRUstRmstYV-15" value="" style="group" parent="wVpr-9VvbVRUstRmstYV-13" vertex="1" connectable="0">
          <mxGeometry x="85.72622701711897" y="100.11923076923077" width="1200.0975000000003" height="656.8107692307694" as="geometry" />
        </mxCell>
        <mxCell id="wVpr-9VvbVRUstRmstYV-10" value="&amp;nbsp; &amp;nbsp; &amp;nbsp; &amp;nbsp; &amp;nbsp; &amp;nbsp; &amp;nbsp; &amp;nbsp; &amp;nbsp; &amp;nbsp; &amp;nbsp;&lt;b&gt;Virtual Network -&amp;nbsp;vnet-netwrk-centrl-main-tst-i/snet-asp-syncro-stream-transc-tst-i&lt;/b&gt;" style="rounded=0;whiteSpace=wrap;html=1;horizontal=1;align=center;verticalAlign=top;" parent="wVpr-9VvbVRUstRmstYV-15" vertex="1">
          <mxGeometry width="400" height="300" as="geometry" />
        </mxCell>
        <mxCell id="wVpr-9VvbVRUstRmstYV-11" value="" style="verticalLabelPosition=bottom;html=1;verticalAlign=top;align=center;strokeColor=none;fillColor=#00BEF2;shape=mxgraph.azure.virtual_network;pointerEvents=1;" parent="wVpr-9VvbVRUstRmstYV-15" vertex="1">
          <mxGeometry x="15.777741292114825" y="8.01354323076923" width="48.847496260417415" height="28.02937984615384" as="geometry" />
        </mxCell>
        <mxCell id="SliKgruhRy5jez4xbi1P-107" value="" style="group" parent="wVpr-9VvbVRUstRmstYV-15" vertex="1" connectable="0">
          <mxGeometry x="24.269999999999996" y="49.88076923076923" width="344.543772982881" height="183.23923076923077" as="geometry" />
        </mxCell>
        <mxCell id="SliKgruhRy5jez4xbi1P-94" value="&lt;b&gt;APP Service Plan&lt;/b&gt;" style="rounded=1;whiteSpace=wrap;html=1;fillColor=#d5e8d4;strokeColor=#82b366;verticalAlign=top;" parent="SliKgruhRy5jez4xbi1P-107" vertex="1">
          <mxGeometry y="13.239230769230772" width="331.59" height="170" as="geometry" />
        </mxCell>
        <mxCell id="SliKgruhRy5jez4xbi1P-99" value="" style="group" parent="SliKgruhRy5jez4xbi1P-107" vertex="1" connectable="0">
          <mxGeometry x="30" y="52.85923076923078" width="297.4" height="77.5620229819832" as="geometry" />
        </mxCell>
        <mxCell id="wVpr-9VvbVRUstRmstYV-31" value="&amp;nbsp; &amp;nbsp; &amp;nbsp; &amp;nbsp; &amp;nbsp; &amp;nbsp;&lt;span style=&quot;background-color: initial;&quot;&gt;Funtion APP - func-syncro-stream-transc-[env]-i&lt;/span&gt;" style="rounded=0;whiteSpace=wrap;html=1;verticalAlign=top;fontStyle=1;align=center;" parent="SliKgruhRy5jez4xbi1P-99" vertex="1">
          <mxGeometry width="271.03000000000003" height="77.5620229819832" as="geometry" />
        </mxCell>
        <mxCell id="SliKgruhRy5jez4xbi1P-97" value="" style="group" parent="SliKgruhRy5jez4xbi1P-99" vertex="1" connectable="0">
          <mxGeometry x="88.6" y="41.18999999999994" width="93.81999999999996" height="26.489999999999995" as="geometry" />
        </mxCell>
        <mxCell id="SliKgruhRy5jez4xbi1P-86" value="functions" style="rounded=1;whiteSpace=wrap;html=1;fillColor=#dae8fc;strokeColor=#6c8ebf;" parent="SliKgruhRy5jez4xbi1P-97" vertex="1">
          <mxGeometry width="80" height="24.3" as="geometry" />
        </mxCell>
        <mxCell id="SliKgruhRy5jez4xbi1P-84" value="" style="shape=image;verticalLabelPosition=bottom;labelBackgroundColor=#ffffff;verticalAlign=top;aspect=fixed;imageAspect=0;image=data:image/svg+xml,PHN2ZyB4bWxuczpjYz0iaHR0cDovL2NyZWF0aXZlY29tbW9ucy5vcmcvbnMjIiB4bWxuczpkYz0iaHR0cDovL3B1cmwub3JnL2RjL2VsZW1lbnRzLzEuMS8iIHhtbG5zOmlua3NjYXBlPSJodHRwOi8vd3d3Lmlua3NjYXBlLm9yZy9uYW1lc3BhY2VzL2lua3NjYXBlIiB4bWxuczpyZGY9Imh0dHA6Ly93d3cudzMub3JnLzE5OTkvMDIvMjItcmRmLXN5bnRheC1ucyMiIHhtbG5zOnNvZGlwb2RpPSJodHRwOi8vc29kaXBvZGkuc291cmNlZm9yZ2UubmV0L0RURC9zb2RpcG9kaS0wLmR0ZCIgeG1sbnM6c3ZnPSJodHRwOi8vd3d3LnczLm9yZy8yMDAwL3N2ZyIgeG1sbnM9Imh0dHA6Ly93d3cudzMub3JnLzIwMDAvc3ZnIiB4bWxuczp4bGluaz0iaHR0cDovL3d3dy53My5vcmcvMTk5OS94bGluayIgdmVyc2lvbj0iMS4xIiBpZD0ic3ZnMTY4NTI4IiBpbmtzY2FwZTp2ZXJzaW9uPSIwLjkyLjMgKDI0MDU1NDYsIDIwMTgtMDMtMTEpIiBzb2RpcG9kaTpkb2NuYW1lPSJkb3RuZXQuc3ZnIiB4PSIwcHgiIHk9IjBweCIgdmlld0JveD0iMCAwIDQ4IDQ4IiBzdHlsZT0iZW5hYmxlLWJhY2tncm91bmQ6bmV3IDAgMCA0OCA0ODsiIHhtbDpzcGFjZT0icHJlc2VydmUiPiYjeGE7PHNvZGlwb2RpOm5hbWVkdmlldyBib3JkZXJjb2xvcj0iIzY2NjY2NiIgYm9yZGVyb3BhY2l0eT0iMSIgZml0LW1hcmdpbi1ib3R0b209IjAiIGZpdC1tYXJnaW4tbGVmdD0iMCIgZml0LW1hcmdpbi1yaWdodD0iMCIgZml0LW1hcmdpbi10b3A9IjAiIGdyaWR0b2xlcmFuY2U9IjEwIiBndWlkZXRvbGVyYW5jZT0iMTAiIGlkPSJuYW1lZHZpZXcxNjg1MzAiIGlua3NjYXBlOmN1cnJlbnQtbGF5ZXI9InN2ZzE2ODUyOCIgaW5rc2NhcGU6Y3g9IjQzLjc0ODEwNiIgaW5rc2NhcGU6Y3k9IjIxLjc5MTkwMiIgaW5rc2NhcGU6cGFnZW9wYWNpdHk9IjAiIGlua3NjYXBlOnBhZ2VzaGFkb3c9IjIiIGlua3NjYXBlOndpbmRvdy1oZWlnaHQ9IjEwMTciIGlua3NjYXBlOndpbmRvdy1tYXhpbWl6ZWQ9IjEiIGlua3NjYXBlOndpbmRvdy13aWR0aD0iMTkyMCIgaW5rc2NhcGU6d2luZG93LXg9Ii04IiBpbmtzY2FwZTp3aW5kb3cteT0iLTgiIGlua3NjYXBlOnpvb209IjkuMTY1MTI1OSIgb2JqZWN0dG9sZXJhbmNlPSIxMCIgcGFnZWNvbG9yPSIjZmZmZmZmIiBzaG93Z3JpZD0iZmFsc2UiPiYjeGE7CTwvc29kaXBvZGk6bmFtZWR2aWV3PiYjeGE7PGNpcmNsZSBpZD0iZWxsaXBzZTE2ODQ5NyIgc3R5bGU9ImZpbGw6IzVDMkQ5MTsiIGN4PSIyNCIgY3k9IjI0IiByPSIyNCIvPiYjeGE7PHBhdGggaWQ9InBhdGgxNjg1MDIiIGlua3NjYXBlOmNvbm5lY3Rvci1jdXJ2YXR1cmU9IjAiIHN0eWxlPSJmaWxsOiNGRkZGRkY7ZmlsbC1vcGFjaXR5OjAuMDk4OyIgZD0iTTcuMzYsNi43NSAgQy0yLjUzLDE1LjU3LTMuNCwzMC43NCw1LjQyLDQwLjY0UzI5LjQxLDUxLjQsMzkuMyw0Mi41OGMwLjY5LTAuNjEsMS4zNC0xLjI2LDEuOTUtMS45NUw3LjM2LDYuNzV6Ii8+JiN4YTs8cGF0aCBpZD0icGF0aDE2ODUwNyIgaW5rc2NhcGU6Y29ubmVjdG9yLWN1cnZhdHVyZT0iMCIgc3R5bGU9ImZpbGw6I0ZGRkZGRjsiIGQ9Ik01LjU1LDMwLjk0Yy0wLjI4LDAtMC41Ni0wLjExLTAuNzUtMC4zMiAgYy0wLjItMC4yLTAuMzEtMC40Ny0wLjMxLTAuNzVjMC0wLjI4LDAuMTEtMC41NSwwLjMxLTAuNzVDNSwyOC45MSw1LjI3LDI4LjgsNS41NSwyOC44YzAuMjgsMCwwLjU1LDAuMTEsMC43NSwwLjMyICBjMC4yLDAuMiwwLjMxLDAuNDcsMC4zMSwwLjc1YzAsMC4yOC0wLjExLDAuNTUtMC4zMSwwLjc1QzYuMTEsMzAuODIsNS44NCwzMC45NCw1LjU1LDMwLjk0eiIvPiYjeGE7PHBhdGggaWQ9InBhdGgxNjg1MTIiIGlua3NjYXBlOmNvbm5lY3Rvci1jdXJ2YXR1cmU9IjAiIHN0eWxlPSJmaWxsOiNGRkZGRkY7IiBkPSJNMjAuNDUsMzAuNzVoLTEuOTdsLTcuMDItMTAuOTEgIGMtMC4xOC0wLjI3LTAuMzItMC41NS0wLjQ0LTAuODVoLTAuMDZjMC4wNywwLjYyLDAuMDksMS4yNSwwLjA4LDEuODd2OS44OWgtMS42VjE3LjA4aDIuMDhsNi44NCwxMC43MSAgYzAuMjgsMC40NCwwLjQ3LDAuNzUsMC41NSwwLjkxaDAuMDRjLTAuMDgtMC42Ny0wLjExLTEuMzQtMC4xLTIuMDF2LTkuNjFoMS42VjMwLjc1eiIvPiYjeGE7PHBhdGggaWQ9InBhdGgxNjg1MTciIGlua3NjYXBlOmNvbm5lY3Rvci1jdXJ2YXR1cmU9IjAiIHN0eWxlPSJmaWxsOiNGRkZGRkY7IiBkPSJNMzEuMjcsMzAuNzVIMjRWMTcuMDhoNi45M3YxLjQ0aC01LjN2NC41NWg0Ljk0ICB2MS40NGgtNC45NHY0Ljc0aDUuNjRWMzAuNzV6Ii8+JiN4YTs8cGF0aCBpZD0icGF0aDE2ODUyMiIgaW5rc2NhcGU6Y29ubmVjdG9yLWN1cnZhdHVyZT0iMCIgc3R5bGU9ImZpbGw6I0ZGRkZGRjsiIGQ9Ik00MiwxOC41MmgtMy45N3YxMi4yM2gtMS42VjE4LjUySDMyLjV2LTEuNDRINDIgIFYxOC41MnoiLz4mI3hhOzwvc3ZnPg==;" parent="SliKgruhRy5jez4xbi1P-97" vertex="1">
          <mxGeometry x="69.99999999999997" y="2.6699999999999946" width="23.82" height="23.82" as="geometry" />
        </mxCell>
        <mxCell id="wVpr-9VvbVRUstRmstYV-32" value="" style="image;aspect=fixed;html=1;points=[];align=center;fontSize=12;image=img/lib/azure2/compute/Function_Apps.svg;" parent="SliKgruhRy5jez4xbi1P-99" vertex="1">
          <mxGeometry width="35.470000000000006" height="31.300000000000008" as="geometry" />
        </mxCell>
        <mxCell id="SliKgruhRy5jez4xbi1P-78" value="" style="image;aspect=fixed;html=1;points=[];align=center;fontSize=12;image=img/lib/azure2/identity/Azure_Active_Directory.svg;" parent="SliKgruhRy5jez4xbi1P-99" vertex="1">
          <mxGeometry x="245.85999999999999" y="38.37172364874448" width="42.86000000000001" height="39.190000000000005" as="geometry" />
        </mxCell>
        <mxCell id="SliKgruhRy5jez4xbi1P-100" value="" style="image;aspect=fixed;html=1;points=[];align=center;fontSize=12;image=img/lib/azure2/networking/Private_Endpoint.svg;" parent="SliKgruhRy5jez4xbi1P-107" vertex="1">
          <mxGeometry x="15.860000000000014" y="3.119230769230768" width="25.93" height="23.77" as="geometry" />
        </mxCell>
        <mxCell id="SliKgruhRy5jez4xbi1P-101" value="Subnet&amp;nbsp;&lt;span style=&quot;background-color: rgb(255, 255, 255); color: rgb(41, 40, 39); font-family: &amp;quot;Segoe UI&amp;quot;, &amp;quot;Segoe UI Web (West European)&amp;quot;, &amp;quot;Segoe UI&amp;quot;, -apple-system, BlinkMacSystemFont, Roboto, &amp;quot;Helvetica Neue&amp;quot;, sans-serif; font-size: 13px; text-align: start;&quot;&gt;10.89.2.26&lt;/span&gt;" style="rounded=1;whiteSpace=wrap;html=1;fontStyle=1" parent="SliKgruhRy5jez4xbi1P-107" vertex="1">
          <mxGeometry x="224.543772982881" width="120" height="30" as="geometry" />
        </mxCell>
        <mxCell id="SliKgruhRy5jez4xbi1P-83" value="RBAC" style="text;html=1;align=center;verticalAlign=middle;resizable=0;points=[];autosize=1;strokeColor=none;fillColor=none;" parent="SliKgruhRy5jez4xbi1P-107" vertex="1">
          <mxGeometry x="284.00377298288095" y="120.53999999999996" width="60" height="30" as="geometry" />
        </mxCell>
        <mxCell id="SliKgruhRy5jez4xbi1P-109" value="Subnet 10.89.4.14" style="rounded=1;whiteSpace=wrap;html=1;fontStyle=1" parent="wVpr-9VvbVRUstRmstYV-15" vertex="1">
          <mxGeometry x="614.273772982881" y="339.88076923076926" width="130" height="30" as="geometry" />
        </mxCell>
        <mxCell id="wVpr-9VvbVRUstRmstYV-27" value="kv-syncro-stream-[env]-i" style="shape=image;verticalLabelPosition=bottom;labelBackgroundColor=#ffffff;verticalAlign=top;aspect=fixed;imageAspect=0;image=data:image/svg+xml,PHN2ZyB4bWxuczpkYz0iaHR0cDovL3B1cmwub3JnL2RjL2VsZW1lbnRzLzEuMS8iIHhtbG5zOmNjPSJodHRwOi8vY3JlYXRpdmVjb21tb25zLm9yZy9ucyMiIHhtbG5zOnJkZj0iaHR0cDovL3d3dy53My5vcmcvMTk5OS8wMi8yMi1yZGYtc3ludGF4LW5zIyIgeG1sbnM6c3ZnPSJodHRwOi8vd3d3LnczLm9yZy8yMDAwL3N2ZyIgeG1sbnM9Imh0dHA6Ly93d3cudzMub3JnLzIwMDAvc3ZnIiB4bWxuczpzb2RpcG9kaT0iaHR0cDovL3NvZGlwb2RpLnNvdXJjZWZvcmdlLm5ldC9EVEQvc29kaXBvZGktMC5kdGQiIHhtbG5zOmlua3NjYXBlPSJodHRwOi8vd3d3Lmlua3NjYXBlLm9yZy9uYW1lc3BhY2VzL2lua3NjYXBlIiB2ZXJzaW9uPSIxLjEiIGlkPSJzdmc4MjQ1OSIgaW5rc2NhcGU6dmVyc2lvbj0iMC45Mi4zICgyNDA1NTQ2LCAyMDE4LTAzLTExKSIgc29kaXBvZGk6ZG9jbmFtZT0ia2V5X3ZhdWx0LnN2ZyIgeD0iMHB4IiB5PSIwcHgiIHZpZXdCb3g9IjAgMCA4OS42OSAxMDAuMTEiIHN0eWxlPSJlbmFibGUtYmFja2dyb3VuZDpuZXcgMCAwIDg5LjY5IDEwMC4xMTsiIHhtbDpzcGFjZT0icHJlc2VydmUiPjxtZXRhZGF0YSBpZD0ibWV0YWRhdGEyMzQ4Ij48cmRmOlJERj48Y2M6V29yayByZGY6YWJvdXQ9IiI+PGRjOmZvcm1hdD5pbWFnZS9zdmcreG1sPC9kYzpmb3JtYXQ+PGRjOnR5cGUgcmRmOnJlc291cmNlPSJodHRwOi8vcHVybC5vcmcvZGMvZGNtaXR5cGUvU3RpbGxJbWFnZSIvPjxkYzp0aXRsZS8+PC9jYzpXb3JrPjwvcmRmOlJERj48L21ldGFkYXRhPjxkZWZzIGlkPSJkZWZzMjM0NiIvPiYjeGE7PGZpbHRlciBpZD0iZmlsdGVyXzIiPiYjeGE7CTxmZUdhdXNzaWFuQmx1ciBpZD0iZmVHYXVzc2lhbkJsdXI4MjQzMiIgc3RkRGV2aWF0aW9uPSIyIi8+JiN4YTs8L2ZpbHRlcj4mI3hhOzxzb2RpcG9kaTpuYW1lZHZpZXcgYm9yZGVyY29sb3I9IiM2NjY2NjYiIGJvcmRlcm9wYWNpdHk9IjEiIGZpdC1tYXJnaW4tYm90dG9tPSIwIiBmaXQtbWFyZ2luLWxlZnQ9IjAiIGZpdC1tYXJnaW4tcmlnaHQ9IjAiIGZpdC1tYXJnaW4tdG9wPSIwIiBncmlkdG9sZXJhbmNlPSIxMCIgZ3VpZGV0b2xlcmFuY2U9IjEwIiBpZD0ibmFtZWR2aWV3ODI0NjEiIGlua3NjYXBlOmN1cnJlbnQtbGF5ZXI9InN2ZzgyNDU5IiBpbmtzY2FwZTpjeD0iNzMuODY0NzI3IiBpbmtzY2FwZTpjeT0iNTIuMzM5MjAxIiBpbmtzY2FwZTpwYWdlb3BhY2l0eT0iMCIgaW5rc2NhcGU6cGFnZXNoYWRvdz0iMiIgaW5rc2NhcGU6d2luZG93LWhlaWdodD0iMTAxNyIgaW5rc2NhcGU6d2luZG93LW1heGltaXplZD0iMSIgaW5rc2NhcGU6d2luZG93LXdpZHRoPSIxOTIwIiBpbmtzY2FwZTp3aW5kb3cteD0iLTgiIGlua3NjYXBlOndpbmRvdy15PSItOCIgaW5rc2NhcGU6em9vbT0iMy42OTA2MTY0IiBvYmplY3R0b2xlcmFuY2U9IjEwIiBwYWdlY29sb3I9IiNmZmZmZmYiIHNob3dncmlkPSJmYWxzZSI+JiN4YTsJPC9zb2RpcG9kaTpuYW1lZHZpZXc+JiN4YTsmI3hhOzxwYXRoIGlkPSJwYXRoODI0NDUiIGlua3NjYXBlOmNvbm5lY3Rvci1jdXJ2YXR1cmU9IjAiIHN0eWxlPSJmaWxsOiM3RkJBMDA7IiBkPSJNODkuNjksNTUuMjZjMC0xNC42Mi03LTI3LjQzLTE3LjYxLTM1LjY0ICBjMCwwLjQsMCwxLDAsMS40YzAsNC40MS0xLjIxLDguNjEtMy4wMSwxMi4yMWM1LjIxLDUuODEsOC40MSwxMy40Miw4LjQxLDIxLjgzYzAsMTguMDItMTQuNjEsMzIuNjMtMzIuNjMsMzIuNjMgIFMxMi4yMSw3My4wOCwxMi4yMSw1NS4wNmMwLTkuMDEsMy42MS0xNy4wMiw5LjQxLTIzLjAzYy0xLjYtMy40LTIuNi03LjItMi42LTExLjIxYzAtMC44LDAtMS44LDAuMi0yLjZDNy42MSwyNi4yMywwLDM5Ljg0LDAsNTUuMDYgIGMwLDI1LjAyLDIwLjAyLDQ1LjA1LDQ0Ljg1LDQ1LjA1QzY5LjY3LDEwMC4xMSw4OS42OSw4MC4wOCw4OS42OSw1NS4yNnoiLz4mI3hhOyYjeGE7PHBhdGggaWQ9InBhdGg4MjQ1MyIgaW5rc2NhcGU6Y29ubmVjdG9yLWN1cnZhdHVyZT0iMCIgc3R5bGU9ImZpbGw6I0ZDRDExNjsiIGQ9Ik00NS40NSwwQzM0LjA0LDAsMjQuODMsOS4yMSwyNC44MywyMC42MiAgYzAsOS40MSw2LjIxLDE3LjIyLDE0LjgyLDE5LjgydjIwLjQzaC05LjYxdjEwLjQxaDkuNjF2Ny42MWgxMS40MVY0MC4yNGM4LjYxLTIuNCwxNC44MS0xMC40MSwxNC44MS0xOS44MiAgQzY2LjA3LDkuMjEsNTYuODYsMCw0NS40NSwweiBNNDUuNDUsMTAuODFjNS40MSwwLDkuODEsNC40MSw5LjgxLDkuODFjMCw1LjQxLTQuNCw5LjgxLTkuODEsOS44MWMtNS40LDAtOS44MS00LjQtOS44MS05LjgxICBDMzUuNjQsMTUuMjIsNDAuMDUsMTAuODEsNDUuNDUsMTAuODF6Ii8+JiN4YTs8L3N2Zz4=;" parent="wVpr-9VvbVRUstRmstYV-13" vertex="1">
          <mxGeometry x="39.00999999999999" y="595.6202850613423" width="50" height="55.56" as="geometry" />
        </mxCell>
        <mxCell id="SliKgruhRy5jez4xbi1P-79" style="edgeStyle=orthogonalEdgeStyle;rounded=0;orthogonalLoop=1;jettySize=auto;html=1;" parent="wVpr-9VvbVRUstRmstYV-13" source="SliKgruhRy5jez4xbi1P-78" target="SliKgruhRy5jez4xbi1P-9" edge="1">
          <mxGeometry relative="1" as="geometry">
            <Array as="points">
              <mxPoint x="489.72622701711896" y="261.11923076923074" />
              <mxPoint x="836.726227017119" y="261.11923076923074" />
            </Array>
          </mxGeometry>
        </mxCell>
        <mxCell id="SliKgruhRy5jez4xbi1P-114" value="" style="group" parent="wVpr-9VvbVRUstRmstYV-13" vertex="1" connectable="0">
          <mxGeometry x="148" y="465" width="240" height="145" as="geometry" />
        </mxCell>
        <mxCell id="SliKgruhRy5jez4xbi1P-111" value="StorageAccount -stsyncrostreamtransc[env]i" style="rounded=1;whiteSpace=wrap;html=1;verticalAlign=top;fontStyle=1;fontSize=13;align=center;fillColor=#dae8fc;strokeColor=#6c8ebf;" parent="SliKgruhRy5jez4xbi1P-114" vertex="1">
          <mxGeometry width="240.00000000000003" height="145" as="geometry" />
        </mxCell>
        <mxCell id="SliKgruhRy5jez4xbi1P-112" value="Container -&amp;nbsp;&lt;br&gt;Scriban templates" style="image;aspect=fixed;html=1;points=[];align=center;fontSize=12;image=img/lib/azure2/storage/Storage_Accounts_Classic.svg;" parent="SliKgruhRy5jez4xbi1P-114" vertex="1">
          <mxGeometry x="51.99687434460492" y="54.997765640516384" width="16.505900561206083" height="13.204720448964867" as="geometry" />
        </mxCell>
        <mxCell id="ICB-w93kOwRz04Pf4iep-3" value="queue" style="image;aspect=fixed;html=1;points=[];align=center;fontSize=12;image=img/lib/azure2/storage/Storage_Accounts_Classic.svg;" vertex="1" parent="SliKgruhRy5jez4xbi1P-114">
          <mxGeometry x="151.99687434460492" y="54.99776564051638" width="16.505900561206083" height="13.204720448964867" as="geometry" />
        </mxCell>
        <mxCell id="SliKgruhRy5jez4xbi1P-87" value="&lt;b&gt;&lt;font style=&quot;font-size: 20px;&quot;&gt;East US 2&lt;/font&gt;&lt;/b&gt;" style="rounded=0;whiteSpace=wrap;html=1;dashed=1;fillColor=#dae8fc;strokeColor=#6c8ebf;" parent="wVpr-9VvbVRUstRmstYV-13" vertex="1">
          <mxGeometry x="839.9999999999999" y="-30" width="170" height="60" as="geometry" />
        </mxCell>
        <mxCell id="SliKgruhRy5jez4xbi1P-116" style="edgeStyle=orthogonalEdgeStyle;rounded=0;orthogonalLoop=1;jettySize=auto;html=1;exitX=0.47;exitY=1.013;exitDx=0;exitDy=0;exitPerimeter=0;" parent="wVpr-9VvbVRUstRmstYV-13" source="wVpr-9VvbVRUstRmstYV-31" target="SliKgruhRy5jez4xbi1P-111" edge="1">
          <mxGeometry relative="1" as="geometry" />
        </mxCell>
        <mxCell id="SliKgruhRy5jez4xbi1P-6" value="Insight" style="shape=image;verticalLabelPosition=bottom;labelBackgroundColor=#ffffff;verticalAlign=top;aspect=fixed;imageAspect=0;image=data:image/svg+xml,PHN2ZyB4bWxuczpkYz0iaHR0cDovL3B1cmwub3JnL2RjL2VsZW1lbnRzLzEuMS8iIHhtbG5zOmNjPSJodHRwOi8vY3JlYXRpdmVjb21tb25zLm9yZy9ucyMiIHhtbG5zOnJkZj0iaHR0cDovL3d3dy53My5vcmcvMTk5OS8wMi8yMi1yZGYtc3ludGF4LW5zIyIgeG1sbnM6c3ZnPSJodHRwOi8vd3d3LnczLm9yZy8yMDAwL3N2ZyIgeG1sbnM9Imh0dHA6Ly93d3cudzMub3JnLzIwMDAvc3ZnIiB4bWxuczpzb2RpcG9kaT0iaHR0cDovL3NvZGlwb2RpLnNvdXJjZWZvcmdlLm5ldC9EVEQvc29kaXBvZGktMC5kdGQiIHhtbG5zOmlua3NjYXBlPSJodHRwOi8vd3d3Lmlua3NjYXBlLm9yZy9uYW1lc3BhY2VzL2lua3NjYXBlIiB2ZXJzaW9uPSIxLjEiIGlkPSJzdmc0OTQ5OSIgaW5rc2NhcGU6dmVyc2lvbj0iMC45Mi4zICgyNDA1NTQ2LCAyMDE4LTAzLTExKSIgc29kaXBvZGk6ZG9jbmFtZT0iYXBwbGljYXRpb25faW5zaWdodHMuc3ZnIiB4PSIwcHgiIHk9IjBweCIgdmlld0JveD0iMCAwIDI0LjQyMDE2IDM3LjQzMDYxOCIgeG1sOnNwYWNlPSJwcmVzZXJ2ZSIgd2lkdGg9IjI0LjQyMDE2IiBoZWlnaHQ9IjM3LjQzMDYxOCI+PG1ldGFkYXRhIGlkPSJtZXRhZGF0YTE2NDkyIj48cmRmOlJERj48Y2M6V29yayByZGY6YWJvdXQ9IiI+PGRjOmZvcm1hdD5pbWFnZS9zdmcreG1sPC9kYzpmb3JtYXQ+PGRjOnR5cGUgcmRmOnJlc291cmNlPSJodHRwOi8vcHVybC5vcmcvZGMvZGNtaXR5cGUvU3RpbGxJbWFnZSIvPjxkYzp0aXRsZS8+PC9jYzpXb3JrPjwvcmRmOlJERj48L21ldGFkYXRhPjxkZWZzIGlkPSJkZWZzMTY0OTAiLz4mI3hhOzxmaWx0ZXIgaWQ9ImZpbHRlcl8yIj4mI3hhOwk8ZmVHYXVzc2lhbkJsdXIgaWQ9ImZlR2F1c3NpYW5CbHVyNDk0NDgiIHN0ZERldmlhdGlvbj0iMiIvPiYjeGE7PC9maWx0ZXI+JiN4YTs8c29kaXBvZGk6bmFtZWR2aWV3IGJvcmRlcmNvbG9yPSIjNjY2NjY2IiBib3JkZXJvcGFjaXR5PSIxIiBmaXQtbWFyZ2luLWJvdHRvbT0iMCIgZml0LW1hcmdpbi1sZWZ0PSIwIiBmaXQtbWFyZ2luLXJpZ2h0PSIwIiBmaXQtbWFyZ2luLXRvcD0iMCIgZ3JpZHRvbGVyYW5jZT0iMTAiIGd1aWRldG9sZXJhbmNlPSIxMCIgaWQ9Im5hbWVkdmlldzQ5NTAxIiBpbmtzY2FwZTpjdXJyZW50LWxheWVyPSJzdmc0OTQ5OSIgaW5rc2NhcGU6Y3g9IjM4LjkwMjE4NCIgaW5rc2NhcGU6Y3k9IjE5LjE5MDM0NiIgaW5rc2NhcGU6cGFnZW9wYWNpdHk9IjAiIGlua3NjYXBlOnBhZ2VzaGFkb3c9IjIiIGlua3NjYXBlOndpbmRvdy1oZWlnaHQ9IjEwMTciIGlua3NjYXBlOndpbmRvdy1tYXhpbWl6ZWQ9IjEiIGlua3NjYXBlOndpbmRvdy13aWR0aD0iMTkyMCIgaW5rc2NhcGU6d2luZG93LXg9Ii04IiBpbmtzY2FwZTp3aW5kb3cteT0iLTgiIGlua3NjYXBlOnpvb209IjEwLjU4NjE2IiBvYmplY3R0b2xlcmFuY2U9IjEwIiBwYWdlY29sb3I9IiNmZmZmZmYiIHNob3dncmlkPSJmYWxzZSI+JiN4YTsJPC9zb2RpcG9kaTpuYW1lZHZpZXc+JiN4YTsmI3hhOzxwYXRoIGlkPSJwYXRoNDk0NjEiIGlua3NjYXBlOmNvbm5lY3Rvci1jdXJ2YXR1cmU9IjAiIHN0eWxlPSJmaWxsOiM2ODIxN2EiIGQ9Im0gMjQuMzk5Mjc4LDEwLjk2MDYxOSB2IC0wLjIzIGMgMCwtNS43NzAwMDAzIC00Ljk0LC0xMC41NzAwMDAzMiAtMTEuMDIsLTEwLjY1MDAwMDMyIC0wLjE1LC0wLjIyIC0zLjYwMDAwMDUsMC4wOCAtMy42MDAwMDA1LDAuMDggLTUuNDcsMC42NyAtOS43NDk5OTk5Niw1LjI1MDAwMDAyIC05Ljc0OTk5OTk2LDEwLjU3MDAwMDMyIDAsMC4xNSAtMC42LDQuMzUgMy42Nzk5OTk5Niw3Ljg4IDEuOTUsMS43MiAzLjk3LDYuMzcgNC4yNyw3LjcyIGwgMC4yMywwLjQ1IGggNy45NTAwMDA1IGwgMC4yMiwtMC40NSBjIDAuMywtMS4zNSAyLjQsLTYgNC4yNywtNy42NSA0LjI4LC0zLjYgMy43NSwtNy41NyAzLjc1LC03LjcyIHoiLz4mI3hhOyYjeGE7PHJlY3QgaWQ9InJlY3Q0OTQ2OSIgeD0iOC4zNDkyNzc1IiB5PSIyOS40ODA2MTgiIHN0eWxlPSJmaWxsOiM3YTdhN2EiIHdpZHRoPSI3Ljk0OTk5OTgiIGhlaWdodD0iMi41NSIvPiYjeGE7JiN4YTs8cGF0aCBpZD0icGF0aDQ5NDc3IiBpbmtzY2FwZTpjb25uZWN0b3ItY3VydmF0dXJlPSIwIiBzdHlsZT0iZmlsbDojN2E3YTdhIiBkPSJtIDEwLjgxOTI3OCwzNy40MzA2MTkgaCAyLjkzIGwgMi40NywtMi42MiBIIDguMzQ5Mjc3NSBaIi8+JiN4YTsmI3hhOzxwYXRoIGlkPSJwYXRoNDk0ODUiIGlua3NjYXBlOmNvbm5lY3Rvci1jdXJ2YXR1cmU9IjAiIHN0eWxlPSJmaWxsOiNmZmZmZmY7ZmlsbC1vcGFjaXR5OjAuNjUiIGQ9Im0gMTQuMjc5Mjc4LDI2LjQxMDYxOSBoIC0xLjUgdiAtOS41MiBoIC0xLjI4IHYgOS40NSBIIDkuOTk5Mjc3NSB2IC05LjQ1IGggLTEuMjcgYyAtMS41MSwwIC0yLjc4LC0xLjI4IC0yLjc4LC0yLjc4IDAsLTEuNSAxLjIsLTIuNzcgMi43OCwtMi43NyAxLjU3MDAwMDUsMCAyLjc3MDAwMDUsMS4yNyAyLjc3MDAwMDUsMi43NyB2IDEuMjggaCAxLjI4IHYgLTEuMjggYyAwLC0xLjUgMS4yNywtMi43NyAyLjc3LC0yLjc3IDEuNSwwIDIuNzcsMS4yNyAyLjc3LDIuNzcgMCwxLjUgLTEuMjcsMi43OCAtMi43NywyLjc4IGggLTEuMjcgeiBtIC01LjU1MDAwMDUsLTEzLjU3IGMgLTAuNjgsMCAtMS4yOCwwLjUyIC0xLjI4LDEuMjcgMCwwLjY4IDAuNiwxLjI4IDEuMjgsMS4yOCBoIDEuMjcgdiAtMS4yOCBjIC0wLjA3LC0wLjY3IC0wLjYsLTEuMjcgLTEuMjcsLTEuMjcgeiBtIDYuODIwMDAwNSwwIGMgLTAuNjcsMCAtMS4yNywwLjYgLTEuMjcsMS4yNyB2IDEuMjggaCAxLjI3IGMgMC42OCwwIDEuMjgsLTAuNiAxLjI4LC0xLjI4IDAsLTAuNjcgLTAuNTMsLTEuMjcgLTEuMjgsLTEuMjcgeiIvPiYjeGE7JiN4YTs8cGF0aCBpZD0icGF0aDQ5NDkzIiBpbmtzY2FwZTpjb25uZWN0b3ItY3VydmF0dXJlPSIwIiBzdHlsZT0iZmlsbDojZmZmZmZmO2ZpbGwtb3BhY2l0eTowLjE1IiBkPSJtIDEzLjM3OTI3OCwwLjA4MDYxODY4IGMgLTAuMTUsLTAuMjIgLTMuNjAwMDAwNSwwLjA4IC0zLjYwMDAwMDUsMC4wOCAtNS40OCwwLjY3IC05Ljc0OTk5OTk2LDUuMjUwMDAwMDIgLTkuNzQ5OTk5OTYsMTAuNTcwMDAwMzIgMCwwLjE1IC0wLjUzLDMuODMgMi45MTk5OTk5Niw3LjIgTCAxOS4xNDkyNzgsMS43MzA2MTg3IGMgLTEuNzIsLTEuMDUwMDAwMDIgLTMuNjcsLTEuNjUwMDAwMDIgLTUuNzcsLTEuNjUwMDAwMDIgeiIvPiYjeGE7PC9zdmc+;" parent="wVpr-9VvbVRUstRmstYV-13" vertex="1">
          <mxGeometry x="55.366227017119" y="499.99923076923073" width="30.36" height="46.81" as="geometry" />
        </mxCell>
        <mxCell id="SliKgruhRy5jez4xbi1P-105" value="" style="group;rotation=90;" parent="wVpr-9VvbVRUstRmstYV-13" vertex="1" connectable="0">
          <mxGeometry x="549.996227017119" y="469.99923076923073" width="271.03" height="158.3" as="geometry" />
        </mxCell>
        <mxCell id="SliKgruhRy5jez4xbi1P-9" value="&amp;nbsp; &amp;nbsp; &amp;nbsp; &amp;nbsp; cosmos-syncro-stream-transc-[env]-i" style="rounded=0;whiteSpace=wrap;html=1;verticalAlign=top;fontStyle=1;fillColor=#dae8fc;strokeColor=#6c8ebf;" parent="SliKgruhRy5jez4xbi1P-105" vertex="1">
          <mxGeometry width="271.03" height="158.3" as="geometry" />
        </mxCell>
        <mxCell id="SliKgruhRy5jez4xbi1P-8" value="" style="shape=image;verticalLabelPosition=bottom;labelBackgroundColor=#ffffff;verticalAlign=top;aspect=fixed;imageAspect=0;image=data:image/svg+xml,PHN2ZyB4bWxuczpjYz0iaHR0cDovL2NyZWF0aXZlY29tbW9ucy5vcmcvbnMjIiB4bWxuczpkYz0iaHR0cDovL3B1cmwub3JnL2RjL2VsZW1lbnRzLzEuMS8iIHhtbG5zOmlua3NjYXBlPSJodHRwOi8vd3d3Lmlua3NjYXBlLm9yZy9uYW1lc3BhY2VzL2lua3NjYXBlIiB4bWxuczpyZGY9Imh0dHA6Ly93d3cudzMub3JnLzE5OTkvMDIvMjItcmRmLXN5bnRheC1ucyMiIHhtbG5zOnNvZGlwb2RpPSJodHRwOi8vc29kaXBvZGkuc291cmNlZm9yZ2UubmV0L0RURC9zb2RpcG9kaS0wLmR0ZCIgeG1sbnM6c3ZnPSJodHRwOi8vd3d3LnczLm9yZy8yMDAwL3N2ZyIgeG1sbnM9Imh0dHA6Ly93d3cudzMub3JnLzIwMDAvc3ZnIiB4bWxuczp4bGluaz0iaHR0cDovL3d3dy53My5vcmcvMTk5OS94bGluayIgdmVyc2lvbj0iMS4xIiBpZD0ic3ZnNzQzMTIiIGlua3NjYXBlOnZlcnNpb249IjAuOTIuMyAoMjQwNTU0NiwgMjAxOC0wMy0xMSkiIHNvZGlwb2RpOmRvY25hbWU9ImNvc21vZGIuc3ZnIiB4PSIwcHgiIHk9IjBweCIgdmlld0JveD0iMCAwIDM3LjQ3IDM0LjUxIiBzdHlsZT0iZW5hYmxlLWJhY2tncm91bmQ6bmV3IDAgMCAzNy40NyAzNC41MTsiIHhtbDpzcGFjZT0icHJlc2VydmUiPiYjeGE7PHNvZGlwb2RpOm5hbWVkdmlldyBib3JkZXJjb2xvcj0iIzY2NjY2NiIgYm9yZGVyb3BhY2l0eT0iMSIgZml0LW1hcmdpbi1ib3R0b209IjAiIGZpdC1tYXJnaW4tbGVmdD0iMCIgZml0LW1hcmdpbi1yaWdodD0iMCIgZml0LW1hcmdpbi10b3A9IjAiIGdyaWR0b2xlcmFuY2U9IjEwIiBndWlkZXRvbGVyYW5jZT0iMTAiIGlkPSJuYW1lZHZpZXc3NDMxNCIgaW5rc2NhcGU6Y3VycmVudC1sYXllcj0ic3ZnNzQzMTIiIGlua3NjYXBlOmN4PSIzNi4xMzQwNTciIGlua3NjYXBlOmN5PSIyMS44MTg5OSIgaW5rc2NhcGU6cGFnZW9wYWNpdHk9IjAiIGlua3NjYXBlOnBhZ2VzaGFkb3c9IjIiIGlua3NjYXBlOndpbmRvdy1oZWlnaHQ9IjEwMTciIGlua3NjYXBlOndpbmRvdy1tYXhpbWl6ZWQ9IjEiIGlua3NjYXBlOndpbmRvdy13aWR0aD0iMTkyMCIgaW5rc2NhcGU6d2luZG93LXg9Ii04IiBpbmtzY2FwZTp3aW5kb3cteT0iLTgiIGlua3NjYXBlOnpvb209IjEyLjc3MjExNiIgb2JqZWN0dG9sZXJhbmNlPSIxMCIgcGFnZWNvbG9yPSIjZmZmZmZmIiBzaG93Z3JpZD0iZmFsc2UiPiYjeGE7CTwvc29kaXBvZGk6bmFtZWR2aWV3PiYjeGE7PGcgaWQ9Imc3NDMxMCIgdHJhbnNmb3JtPSJ0cmFuc2xhdGUoLTAuNzUwMDMzMjMsLTAuNzQ1KSI+JiN4YTsJPHRpdGxlIGlkPSJ0aXRsZTc0MjcwIj5QYWdlLTE8L3RpdGxlPiYjeGE7CTxnIGlkPSJncm91cDQ4ODUtMSIgdHJhbnNmb3JtPSJ0cmFuc2xhdGUoMC4yMjUsLTAuNzUpIj4mI3hhOwkJPHRpdGxlIGlkPSJ0aXRsZTc0MjcyIj5Db3NtbyBEQjwvdGl0bGU+JiN4YTsJCTxnIGlkPSJzaGFwZTQ4ODYtMiIgdHJhbnNmb3JtPSJ0cmFuc2xhdGUoNS43NzUsLTIuNTUpIj4mI3hhOwkJCTx0aXRsZSBpZD0idGl0bGU3NDI3NCI+U2hlZXQuNDg4NjwvdGl0bGU+JiN4YTsJCQk8cGF0aCBpZD0icGF0aDc0Mjc2IiBpbmtzY2FwZTpjb25uZWN0b3ItY3VydmF0dXJlPSIwIiBzdHlsZT0iZmlsbDojNTlCNEQ5OyIgZD0iTTI1LjczLDE5LjVjMS41Nyw2LjY4LTIuNDgsMTMuMzUtOS4xNSwxNC45MyAgICAgQzkuOSwzNiwzLjMsMzIuMDMsMS42NSwyNS4zNUMwLDE4LjY4LDQuMTMsMTIsMTAuOCwxMC40M2wwLDBDMTcuNCw4Ljc4LDI0LjA4LDEyLjgzLDI1LjczLDE5LjVMMjUuNzMsMTkuNXoiLz4mI3hhOwkJPC9nPiYjeGE7CQk8ZyBpZD0ic2hhcGU0ODg3LTQiIHRyYW5zZm9ybT0idHJhbnNsYXRlKDYuNiwtNy44NzUpIj4mI3hhOwkJCTx0aXRsZSBpZD0idGl0bGU3NDI3OSI+U2hlZXQuNDg4NzwvdGl0bGU+JiN4YTsJCQk8cGF0aCBpZD0icGF0aDc0MjgxIiBpbmtzY2FwZTpjb25uZWN0b3ItY3VydmF0dXJlPSIwIiBzdHlsZT0iZmlsbDojRkZGRkZGO2ZpbGwtb3BhY2l0eTowLjU7IiBkPSJNMTEuMSwzMi43ICAgICBjMC0xLjgtMS41LTMuMy0zLjMtMy4zbDAsMEg3LjI4YzAuNDUtMS43Mi0wLjY4LTMuNTItMi40LTMuOTdjLTAuMjMtMC4wOC0wLjUzLTAuMDgtMC44My0wLjA4aC0zLjMgICAgIGMtMC43NSwzLjgzLDAuMzgsNy43MywzLDEwLjU4aDQuMTNDOS42OCwzNiwxMS4xLDM0LjU4LDExLjEsMzIuN0wxMS4xLDMyLjd6Ii8+JiN4YTsJCTwvZz4mI3hhOwkJPGcgaWQ9InNoYXBlNDg4OC02IiB0cmFuc2Zvcm09InRyYW5zbGF0ZSgxNy4wMjUsLTE3LjI1KSI+JiN4YTsJCQk8dGl0bGUgaWQ9InRpdGxlNzQyODQiPlNoZWV0LjQ4ODg8L3RpdGxlPiYjeGE7CQkJPHBhdGggaWQ9InBhdGg3NDI4NiIgaW5rc2NhcGU6Y29ubmVjdG9yLWN1cnZhdHVyZT0iMCIgc3R5bGU9ImZpbGw6I0ZGRkZGRjtmaWxsLW9wYWNpdHk6MC41OyIgZD0iTTQuOCwyOC41ICAgICBjMCwwLjIzLDAsMC4zOCwwLjA3LDAuNkgzLjQ1QzEuNTcsMjkuMSwwLDMwLjYsMCwzMi41NVMxLjUsMzYsMy40NSwzNmgxMS4zMkMxNC40LDMxLjgsMTIsMjguMiw4LjQsMjYuMjVINy4wNSAgICAgQzUuNzcsMjYuMjUsNC44LDI3LjIzLDQuOCwyOC41eiIvPiYjeGE7CQk8L2c+JiN4YTsJCTxnIGlkPSJzaGFwZTQ4ODktOCIgdHJhbnNmb3JtPSJ0cmFuc2xhdGUoMjAuMzI1LC01LjMyNSkiPiYjeGE7CQkJPHRpdGxlIGlkPSJ0aXRsZTc0Mjg5Ij5TaGVldC40ODg5PC90aXRsZT4mI3hhOwkJCTxwYXRoIGlkPSJwYXRoNzQyOTEiIGlua3NjYXBlOmNvbm5lY3Rvci1jdXJ2YXR1cmU9IjAiIHN0eWxlPSJmaWxsOiNGRkZGRkY7ZmlsbC1vcGFjaXR5OjAuNTsiIGQ9Ik0xMS40OCwyNi40OEg0LjczICAgICBjLTEuNSwwLTIuNzgsMS4yLTIuNzgsMi43N2MwLDAuNDUsMC4xNSwwLjksMC4zLDEuMzVjLTEuNSwwLjQ1LTIuMjUsMi4wMy0xLjgsMy40NUMwLjgzLDM1LjI1LDEuODgsMzYsMy4xNSwzNmgxLjggICAgIEM4LjU1LDM0LjEzLDExLjAzLDMwLjUzLDExLjQ4LDI2LjQ4eiIvPiYjeGE7CQk8L2c+JiN4YTsJCTxnIGlkPSJzaGFwZTQ4OTAtMTAiIHRyYW5zZm9ybT0idHJhbnNsYXRlKDAuNTI1LC0yNC4zNzUpIj4mI3hhOwkJCTx0aXRsZSBpZD0idGl0bGU3NDI5NCI+U2hlZXQuNDg5MDwvdGl0bGU+JiN4YTsJCQk8cGF0aCBpZD0icGF0aDc0Mjk2IiBpbmtzY2FwZTpjb25uZWN0b3ItY3VydmF0dXJlPSIwIiBzdHlsZT0iZmlsbDojQjhENDMyOyIgZD0iTTUuMSwzNmMtMC4yMiwwLTAuMzctMC4xNS0wLjM3LTAuMzcgICAgIGMwLTIuNC0xLjk1LTQuMzUtNC4zNS00LjM1QzAuMTUsMzEuMzUsMCwzMS4xMywwLDMwLjk4czAuMTUtMC4zOCwwLjM4LTAuMzhjMi40LDAsNC4zNS0xLjk1LDQuMzUtNC4zNSAgICAgYzAtMC4yMywwLjE1LTAuMzgsMC4zNy0wLjM4YzAuMjMsMCwwLjM4LDAuMTUsMC4zOCwwLjM4YzAsMi40LDEuOTUsNC4zNSw0LjM1LDQuMzVjMC4yMiwwLDAuMzcsMC4xNSwwLjM3LDAuMzggICAgIGMwLDAuMjItMC4xNSwwLjM3LTAuMzcsMC4zN2MtMi40LDAtNC4zNSwxLjk1LTQuMzUsNC4zNUM1LjQ4LDM1Ljg1LDUuMzMsMzYsNS4xLDM2eiIvPiYjeGE7CQk8L2c+JiN4YTsJCTxnIGlkPSJzaGFwZTQ4OTEtMTIiIHRyYW5zZm9ybT0idHJhbnNsYXRlKDI5LjI1KSI+JiN4YTsJCQk8dGl0bGUgaWQ9InRpdGxlNzQyOTkiPlNoZWV0LjQ4OTE8L3RpdGxlPiYjeGE7CQkJPHBhdGggaWQ9InBhdGg3NDMwMSIgaW5rc2NhcGU6Y29ubmVjdG9yLWN1cnZhdHVyZT0iMCIgc3R5bGU9ImZpbGw6IzI2QkNFRTsiIGQ9Ik0zLjA3LDM2Yy0wLjE1LDAtMC4yMi0wLjA3LTAuMjItMC4yMiAgICAgYzAtMS40My0xLjItMi41NS0yLjYzLTIuNTVDMC4wNywzMy4yMywwLDMzLjE1LDAsMzNzMC4wNy0wLjIyLDAuMjItMC4yMmwwLDBjMS40MywwLDIuNTUtMS4xMywyLjYzLTIuNTUgICAgIGMwLTAuMTUsMC4wNy0wLjIzLDAuMjItMC4yM3MwLjIzLDAuMDgsMC4yMywwLjIzYzAsMS40MiwxLjIsMi41NSwyLjYyLDIuNTVjMC4xNSwwLDAuMjMsMC4wNywwLjIzLDAuMjJzLTAuMDgsMC4yMy0wLjIzLDAuMjMgICAgIGwwLDBjLTEuNDIsMC0yLjU1LDEuMTItMi42MiwyLjU1QzMuMywzNS44NSwzLjIyLDM2LDMuMDcsMzZDMy4wNywzNiwzLjA3LDM2LDMuMDcsMzZ6Ii8+JiN4YTsJCTwvZz4mI3hhOwkJPGcgaWQ9InNoYXBlNDg5Mi0xNCIgdHJhbnNmb3JtPSJ0cmFuc2xhdGUoMCwtMy4zNzUpIj4mI3hhOwkJCTx0aXRsZSBpZD0idGl0bGU3NDMwNCI+U2hlZXQuNDg5MjwvdGl0bGU+JiN4YTsJCQk8cGF0aCBpZD0icGF0aDc0MzA2IiBpbmtzY2FwZTpjb25uZWN0b3ItY3VydmF0dXJlPSIwIiBzdHlsZT0iZmlsbDojMEYwRjBGOyIgZD0iTTM3LjUsMTIuMTVjLTEuMi0xLjk1LTQuMTMtMi40LTguNjMtMS4yNyAgICAgYy0xLjM1LDAuMzctMi43NywwLjc1LTQuMDUsMS4yN2MwLjgzLDAuNDUsMS42NSwwLjksMi40LDEuNWMwLjc1LTAuMjIsMS41LTAuNDUsMi4xOC0wLjY3YzEuMi0wLjMsMi40LTAuNDUsMy42LTAuNTMgICAgIGMxLjQyLDAsMi4yNSwwLjM4LDIuNTUsMC44M2MwLjQ1LDAuNzUsMCwyLjYyLTIuNTUsNS42MmMtMC40NSwwLjUzLTAuOTgsMS4wNS0xLjUsMS41OGMtMi44NSwyLjctNS45Myw1LjEtOS4zLDcuMTIgICAgIGMtMy4zNywyLjEtNi45LDMuODMtMTAuNjUsNS4wM2MtNC41LDEuNDItNy41NywxLjQyLTguMjUsMC4zYy0wLjY4LTEuMTMsMC42OC0zLjksNC4wNS03LjJjLTAuMjMtMC45OC0wLjMtMS45NS0wLjMtMi44NSAgICAgYy01LjMyLDQuOC03LjA1LDktNS43LDExLjI1QzIuMSwzNS4zMywzLjY3LDM2LDUuOTIsMzZjMi43LTAuMTUsNS40LTAuNjcsNy45NS0xLjcyYzMuMy0xLjI4LDYuNDUtMi44NSw5LjM4LTQuNzMgICAgIGMzLTEuOCw1Ljg1LTMuOSw4LjQ3LTYuM2MxLjA1LTAuOSwyLjAzLTEuODcsMi45My0yLjkyQzM3LjcyLDE2Ljg4LDM4LjcsMTQuMDMsMzcuNSwxMi4xNXoiLz4mI3hhOwkJPC9nPiYjeGE7CTwvZz4mI3hhOzwvZz4mI3hhOzwvc3ZnPg==;" parent="SliKgruhRy5jez4xbi1P-105" vertex="1">
          <mxGeometry x="0.003772982881059761" y="0.0007692307692650502" width="37" height="35" as="geometry" />
        </mxCell>
        <mxCell id="SliKgruhRy5jez4xbi1P-65" value="clients" style="shape=image;verticalLabelPosition=bottom;labelBackgroundColor=#ffffff;verticalAlign=top;aspect=fixed;imageAspect=0;image=data:image/svg+xml,PHN2ZyB4bWxuczpkYz0iaHR0cDovL3B1cmwub3JnL2RjL2VsZW1lbnRzLzEuMS8iIHhtbG5zOmNjPSJodHRwOi8vY3JlYXRpdmVjb21tb25zLm9yZy9ucyMiIHhtbG5zOnJkZj0iaHR0cDovL3d3dy53My5vcmcvMTk5OS8wMi8yMi1yZGYtc3ludGF4LW5zIyIgeG1sbnM6c3ZnPSJodHRwOi8vd3d3LnczLm9yZy8yMDAwL3N2ZyIgeG1sbnM9Imh0dHA6Ly93d3cudzMub3JnLzIwMDAvc3ZnIiB4bWxuczpzb2RpcG9kaT0iaHR0cDovL3NvZGlwb2RpLnNvdXJjZWZvcmdlLm5ldC9EVEQvc29kaXBvZGktMC5kdGQiIHhtbG5zOmlua3NjYXBlPSJodHRwOi8vd3d3Lmlua3NjYXBlLm9yZy9uYW1lc3BhY2VzL2lua3NjYXBlIiB2ZXJzaW9uPSIxLjEiIGlkPSJzdmc5OTM3MyIgaW5rc2NhcGU6dmVyc2lvbj0iMC45Mi4zICgyNDA1NTQ2LCAyMDE4LTAzLTExKSIgc29kaXBvZGk6ZG9jbmFtZT0iZG9jdW1lbnRkYi5zdmciIHg9IjBweCIgeT0iMHB4IiB2aWV3Qm94PSIwIDAgNDYuMDMgNjAuODkiIHhtbDpzcGFjZT0icHJlc2VydmUiIHdpZHRoPSI0Ni4wMjk5OTkiIGhlaWdodD0iNjAuODg5OTk5Ij48bWV0YWRhdGEgaWQ9Im1ldGFkYXRhNzMxIj48cmRmOlJERj48Y2M6V29yayByZGY6YWJvdXQ9IiI+PGRjOmZvcm1hdD5pbWFnZS9zdmcreG1sPC9kYzpmb3JtYXQ+PGRjOnR5cGUgcmRmOnJlc291cmNlPSJodHRwOi8vcHVybC5vcmcvZGMvZGNtaXR5cGUvU3RpbGxJbWFnZSIvPjxkYzp0aXRsZS8+PC9jYzpXb3JrPjwvcmRmOlJERj48L21ldGFkYXRhPjxkZWZzIGlkPSJkZWZzNzI5Ij4mI3hhOwkmI3hhOyYjeGE7CSYjeGE7JiN4YTsJJiN4YTsmI3hhOwkmI3hhOyYjeGE7CSYjeGE7JiN4YTsJJiN4YTsJJiN4YTsJJiN4YTsmI3hhOwkmI3hhOwkmI3hhOwkmI3hhOyYjeGE7CQkmI3hhOwkmI3hhOwkJJiN4YTsJJiN4YTsJCSYjeGE7CSYjeGE7CQkmI3hhOwkmI3hhOwkJJiN4YTsJJiN4YTsJCSYjeGE7CSYjeGE7CQkmI3hhOwkmI3hhOwkJCSYjeGE7CQkmI3hhOwkJCSYjeGE7CQk8L2RlZnM+JiN4YTs8ZmlsdGVyIGlkPSJmaWx0ZXJfMiI+JiN4YTsJPGZlR2F1c3NpYW5CbHVyIGlkPSJmZUdhdXNzaWFuQmx1cjk5MzAzIiBzdGREZXZpYXRpb249IjIiLz4mI3hhOzwvZmlsdGVyPiYjeGE7PHNvZGlwb2RpOm5hbWVkdmlldyBib3JkZXJjb2xvcj0iIzY2NjY2NiIgYm9yZGVyb3BhY2l0eT0iMSIgZml0LW1hcmdpbi1ib3R0b209IjAiIGZpdC1tYXJnaW4tbGVmdD0iMCIgZml0LW1hcmdpbi1yaWdodD0iMCIgZml0LW1hcmdpbi10b3A9IjAiIGdyaWR0b2xlcmFuY2U9IjEwIiBndWlkZXRvbGVyYW5jZT0iMTAiIGlkPSJuYW1lZHZpZXc5OTM3NSIgaW5rc2NhcGU6Y3VycmVudC1sYXllcj0ic3ZnOTkzNzMiIGlua3NjYXBlOmN4PSItMjkuMzEwMTI1IiBpbmtzY2FwZTpjeT0iNDAuNTkxMjM5IiBpbmtzY2FwZTpwYWdlb3BhY2l0eT0iMCIgaW5rc2NhcGU6cGFnZXNoYWRvdz0iMiIgaW5rc2NhcGU6d2luZG93LWhlaWdodD0iMTAxNyIgaW5rc2NhcGU6d2luZG93LW1heGltaXplZD0iMSIgaW5rc2NhcGU6d2luZG93LXdpZHRoPSIxOTIwIiBpbmtzY2FwZTp3aW5kb3cteD0iLTgiIGlua3NjYXBlOndpbmRvdy15PSItOCIgaW5rc2NhcGU6em9vbT0iNy42MTY2MTYiIG9iamVjdHRvbGVyYW5jZT0iMTAiIHBhZ2Vjb2xvcj0iI2ZmZmZmZiIgc2hvd2dyaWQ9ImZhbHNlIj4mI3hhOwk8L3NvZGlwb2RpOm5hbWVkdmlldz4mI3hhOyYjeGE7PHBhdGggaWQ9InBhdGg5OTMxNiIgaW5rc2NhcGU6Y29ubmVjdG9yLWN1cnZhdHVyZT0iMCIgc3R5bGU9ImZpbGw6IzM5OTljNiIgZD0ibSAwLDguMjggdiA0NC4yMSBjIDAsNC42MyAxMC4yMyw4LjI4IDIzLjAyLDguMjggViA4LjI4IFoiLz4mI3hhOyYjeGE7PHBhdGggaWQ9InBhdGg5OTMyNCIgaW5rc2NhcGU6Y29ubmVjdG9yLWN1cnZhdHVyZT0iMCIgc3R5bGU9ImZpbGw6IzU5YjRkOSIgZD0ibSAyMi42NSw2MC44OSBoIDAuMzcgYyAxMi42NiwwIDIzLjAxLC0zLjc3IDIzLjAxLC04LjI4IFYgOC4yOCBIIDIyLjY1IFoiLz4mI3hhOyYjeGE7PHBhdGggaWQ9InBhdGg5OTMzMiIgaW5rc2NhcGU6Y29ubmVjdG9yLWN1cnZhdHVyZT0iMCIgc3R5bGU9ImZpbGw6I2ZmZmZmZiIgZD0ibSA0Ni4wMyw4LjI4IGMgMCw0LjYzIC0xMC4yMyw4LjI4IC0yMy4wMSw4LjI4IEMgMTAuMjMsMTYuNTYgMCwxMi45MSAwLDguMjggMCwzLjc4IDEwLjM1LDAgMjMuMDIsMCAzNS42OCwwIDQ2LjAzLDMuNzggNDYuMDMsOC4yOCBaIi8+JiN4YTsmI3hhOzxwYXRoIGlkPSJwYXRoOTkzNDAiIGlua3NjYXBlOmNvbm5lY3Rvci1jdXJ2YXR1cmU9IjAiIHN0eWxlPSJmaWxsOiM3ZmJhMDAiIGQ9Im0gNDEuMjksNy43OSBjIDAsMy4wNSAtOC4xNiw1LjQ4IC0xOC4yNyw1LjQ4IC0xMC4xMSwwIC0xOC4yNywtMi40MyAtMTguMjcsLTUuNDggMCwtMy4wNCA4LjE2LC01LjQ4IDE4LjI3LC01LjQ4IDEwLjExLDAgMTguMjcsMi40NCAxOC4yNyw1LjQ4IHoiLz4mI3hhOyYjeGE7PHBhdGggaWQ9InBhdGg5OTM0OCIgaW5rc2NhcGU6Y29ubmVjdG9yLWN1cnZhdHVyZT0iMCIgc3R5bGU9ImZpbGw6I2I4ZDQzMiIgZD0ibSAzNy41MSwxMS4yIGMgMi40NCwtMC45NyAzLjc4LC0yLjA3IDMuNzgsLTMuNDEgMCwtMy4wNCAtOC4xNiwtNS40OCAtMTguMjcsLTUuNDggLTEwLjExLDAgLTE4LjI3LDIuNDQgLTE4LjI3LDUuNDggMCwxLjIyIDEuNDYsMi40NCAzLjc4LDMuNDEgMy4yOCwtMS4zNCA4LjUyLC0yLjE5IDE0LjQ5LC0yLjE5IDUuODQsMCAxMS4wOCwwLjg1IDE0LjQ5LDIuMTkgeiIvPiYjeGE7PHBhdGggZD0ibSAxNi40NDE2NDcsNTAuOTAzNTcgYyAtMS44MywwIC0zLjI5LC0wLjI0IC00LjI2LC0wLjYxIC0xLjEsLTAuMzYgLTEuODMsLTAuOTcgLTIuMzIsLTEuNyAtMC40OCwtMC44NSAtMC43MywtMi4wNyAtMC43MywtMy42NSB2IC0yLjY4IGMgMCwtMS43MSAtMC43MywtMi42OCAtMi4xOSwtMi42OCB2IC0zLjI5IGMgMS40NiwwIDIuMTksLTAuODUgMi4xOSwtMi42OCB2IC0yLjQ0IGMgMCwtMS43IDAuMjUsLTMuMDQgMC43MywtMy43NyAwLjQ5LC0wLjg1IDEuMjIsLTEuMzQgMi4xOSwtMS44MyAxLjEsLTAuMzYgMi40NCwtMC42MSA0LjI3LC0wLjYxIHYgMy4yOSBjIC0wLjg2LDAgLTEuMzQsMC4xMiAtMS44MywwLjQ5IC0wLjM2LDAuMzYgLTAuNjEsMC45NyAtMC42MSwxLjgyIHYgMi4wNyBjIDAsMS4zNCAtMC4xMiwyLjQ0IC0wLjQ5LDMuMjkgLTAuMzYsMC44NiAtMC45NywxLjQ2IC0xLjgyLDEuODMgMC44NSwwLjM3IDEuNDYsMC45NyAxLjgyLDEuOTUgMC4zNywwLjg1IDAuNjEsMi4wNyAwLjYxLDMuNDEgdiAxLjgzIGMgMCwwLjg1IDAuMTMsMS40NiAwLjQ5LDEuODIgMC4zNywwLjM3IDAuOTcsMC42MSAxLjgzLDAuNjEgdiAzLjUzIHoiIHN0eWxlPSJmaWxsOiNmZmZmZmYiIGlua3NjYXBlOmNvbm5lY3Rvci1jdXJ2YXR1cmU9IjAiIGlkPSJwYXRoOTkzNTgiLz4mI3hhOzxwYXRoIGQ9Im0gMzcuMTQ3MDQ3LDM5LjU4MzU3IGMgLTEuNDYsMCAtMi4xOSwwLjg1IC0yLjE5LDIuNjggdiAyLjQzIGMgMCwxLjcxIC0wLjI1LDMuMDUgLTAuNzQsMy43OCAtMC40OCwwLjg1IC0xLjIxLDEuMzQgLTIuMTksMS44MiAtMS4wOSwwLjM3IC0yLjQzLDAuNjEgLTQuMjYsMC42MSB2IC0zLjI5IGMgMC44NSwwIDEuNDYsLTAuMTIgMS44MywtMC40OCAwLjM2LC0wLjM3IDAuNjEsLTAuOTggMC42MSwtMS44MyB2IC0yLjA3IGMgMCwtMS4zNCAwLjEyLC0yLjQ0IDAuNDgsLTMuMjkgMC4zNywtMC44NSAwLjk4LC0xLjQ2IDEuODMsLTEuODIgLTAuODUsLTAuMzcgLTEuNDYsLTEuMSAtMS44MywtMS45NSAtMC4zNiwtMC44NiAtMC42MSwtMi4wNyAtMC42MSwtMy40MSB2IC0xLjgzIGMgMCwtMC44NSAtMC4xMiwtMS40NiAtMC40OCwtMS44MyAtMC4zNywtMC4zNiAtMC45OCwtMC42MSAtMS44MywtMC42MSB2IC0zLjI4IGMgMS44MywwIDMuMjksMC4yNCA0LjI2LDAuNiAxLjEsMC4zNyAxLjgzLDAuOTggMi4zMiwxLjcxIDAuNDgsMC44NSAwLjczLDIuMDcgMC43MywzLjY1IHYgMi42OCBjIDAsMS43MSAwLjczLDIuNjggMi4xOSwyLjY4IHYgMy4wNSB6IiBzdHlsZT0iZmlsbDojZmZmZmZmIiBpbmtzY2FwZTpjb25uZWN0b3ItY3VydmF0dXJlPSIwIiBpZD0icGF0aDk5MzY2Ii8+JiN4YTs8L3N2Zz4=;" parent="SliKgruhRy5jez4xbi1P-105" vertex="1">
          <mxGeometry x="110" y="59.80000000000001" width="29.18" height="38.7" as="geometry" />
        </mxCell>
        <mxCell id="SliKgruhRy5jez4xbi1P-66" value="parameters" style="shape=image;verticalLabelPosition=bottom;labelBackgroundColor=#ffffff;verticalAlign=top;aspect=fixed;imageAspect=0;image=data:image/svg+xml,PHN2ZyB4bWxuczpkYz0iaHR0cDovL3B1cmwub3JnL2RjL2VsZW1lbnRzLzEuMS8iIHhtbG5zOmNjPSJodHRwOi8vY3JlYXRpdmVjb21tb25zLm9yZy9ucyMiIHhtbG5zOnJkZj0iaHR0cDovL3d3dy53My5vcmcvMTk5OS8wMi8yMi1yZGYtc3ludGF4LW5zIyIgeG1sbnM6c3ZnPSJodHRwOi8vd3d3LnczLm9yZy8yMDAwL3N2ZyIgeG1sbnM9Imh0dHA6Ly93d3cudzMub3JnLzIwMDAvc3ZnIiB4bWxuczpzb2RpcG9kaT0iaHR0cDovL3NvZGlwb2RpLnNvdXJjZWZvcmdlLm5ldC9EVEQvc29kaXBvZGktMC5kdGQiIHhtbG5zOmlua3NjYXBlPSJodHRwOi8vd3d3Lmlua3NjYXBlLm9yZy9uYW1lc3BhY2VzL2lua3NjYXBlIiB2ZXJzaW9uPSIxLjEiIGlkPSJzdmc5OTM3MyIgaW5rc2NhcGU6dmVyc2lvbj0iMC45Mi4zICgyNDA1NTQ2LCAyMDE4LTAzLTExKSIgc29kaXBvZGk6ZG9jbmFtZT0iZG9jdW1lbnRkYi5zdmciIHg9IjBweCIgeT0iMHB4IiB2aWV3Qm94PSIwIDAgNDYuMDMgNjAuODkiIHhtbDpzcGFjZT0icHJlc2VydmUiIHdpZHRoPSI0Ni4wMjk5OTkiIGhlaWdodD0iNjAuODg5OTk5Ij48bWV0YWRhdGEgaWQ9Im1ldGFkYXRhNzMxIj48cmRmOlJERj48Y2M6V29yayByZGY6YWJvdXQ9IiI+PGRjOmZvcm1hdD5pbWFnZS9zdmcreG1sPC9kYzpmb3JtYXQ+PGRjOnR5cGUgcmRmOnJlc291cmNlPSJodHRwOi8vcHVybC5vcmcvZGMvZGNtaXR5cGUvU3RpbGxJbWFnZSIvPjxkYzp0aXRsZS8+PC9jYzpXb3JrPjwvcmRmOlJERj48L21ldGFkYXRhPjxkZWZzIGlkPSJkZWZzNzI5Ij4mI3hhOwkmI3hhOyYjeGE7CSYjeGE7JiN4YTsJJiN4YTsmI3hhOwkmI3hhOyYjeGE7CSYjeGE7JiN4YTsJJiN4YTsJJiN4YTsJJiN4YTsmI3hhOwkmI3hhOwkmI3hhOwkmI3hhOyYjeGE7CQkmI3hhOwkmI3hhOwkJJiN4YTsJJiN4YTsJCSYjeGE7CSYjeGE7CQkmI3hhOwkmI3hhOwkJJiN4YTsJJiN4YTsJCSYjeGE7CSYjeGE7CQkmI3hhOwkmI3hhOwkJCSYjeGE7CQkmI3hhOwkJCSYjeGE7CQk8L2RlZnM+JiN4YTs8ZmlsdGVyIGlkPSJmaWx0ZXJfMiI+JiN4YTsJPGZlR2F1c3NpYW5CbHVyIGlkPSJmZUdhdXNzaWFuQmx1cjk5MzAzIiBzdGREZXZpYXRpb249IjIiLz4mI3hhOzwvZmlsdGVyPiYjeGE7PHNvZGlwb2RpOm5hbWVkdmlldyBib3JkZXJjb2xvcj0iIzY2NjY2NiIgYm9yZGVyb3BhY2l0eT0iMSIgZml0LW1hcmdpbi1ib3R0b209IjAiIGZpdC1tYXJnaW4tbGVmdD0iMCIgZml0LW1hcmdpbi1yaWdodD0iMCIgZml0LW1hcmdpbi10b3A9IjAiIGdyaWR0b2xlcmFuY2U9IjEwIiBndWlkZXRvbGVyYW5jZT0iMTAiIGlkPSJuYW1lZHZpZXc5OTM3NSIgaW5rc2NhcGU6Y3VycmVudC1sYXllcj0ic3ZnOTkzNzMiIGlua3NjYXBlOmN4PSItMjkuMzEwMTI1IiBpbmtzY2FwZTpjeT0iNDAuNTkxMjM5IiBpbmtzY2FwZTpwYWdlb3BhY2l0eT0iMCIgaW5rc2NhcGU6cGFnZXNoYWRvdz0iMiIgaW5rc2NhcGU6d2luZG93LWhlaWdodD0iMTAxNyIgaW5rc2NhcGU6d2luZG93LW1heGltaXplZD0iMSIgaW5rc2NhcGU6d2luZG93LXdpZHRoPSIxOTIwIiBpbmtzY2FwZTp3aW5kb3cteD0iLTgiIGlua3NjYXBlOndpbmRvdy15PSItOCIgaW5rc2NhcGU6em9vbT0iNy42MTY2MTYiIG9iamVjdHRvbGVyYW5jZT0iMTAiIHBhZ2Vjb2xvcj0iI2ZmZmZmZiIgc2hvd2dyaWQ9ImZhbHNlIj4mI3hhOwk8L3NvZGlwb2RpOm5hbWVkdmlldz4mI3hhOyYjeGE7PHBhdGggaWQ9InBhdGg5OTMxNiIgaW5rc2NhcGU6Y29ubmVjdG9yLWN1cnZhdHVyZT0iMCIgc3R5bGU9ImZpbGw6IzM5OTljNiIgZD0ibSAwLDguMjggdiA0NC4yMSBjIDAsNC42MyAxMC4yMyw4LjI4IDIzLjAyLDguMjggViA4LjI4IFoiLz4mI3hhOyYjeGE7PHBhdGggaWQ9InBhdGg5OTMyNCIgaW5rc2NhcGU6Y29ubmVjdG9yLWN1cnZhdHVyZT0iMCIgc3R5bGU9ImZpbGw6IzU5YjRkOSIgZD0ibSAyMi42NSw2MC44OSBoIDAuMzcgYyAxMi42NiwwIDIzLjAxLC0zLjc3IDIzLjAxLC04LjI4IFYgOC4yOCBIIDIyLjY1IFoiLz4mI3hhOyYjeGE7PHBhdGggaWQ9InBhdGg5OTMzMiIgaW5rc2NhcGU6Y29ubmVjdG9yLWN1cnZhdHVyZT0iMCIgc3R5bGU9ImZpbGw6I2ZmZmZmZiIgZD0ibSA0Ni4wMyw4LjI4IGMgMCw0LjYzIC0xMC4yMyw4LjI4IC0yMy4wMSw4LjI4IEMgMTAuMjMsMTYuNTYgMCwxMi45MSAwLDguMjggMCwzLjc4IDEwLjM1LDAgMjMuMDIsMCAzNS42OCwwIDQ2LjAzLDMuNzggNDYuMDMsOC4yOCBaIi8+JiN4YTsmI3hhOzxwYXRoIGlkPSJwYXRoOTkzNDAiIGlua3NjYXBlOmNvbm5lY3Rvci1jdXJ2YXR1cmU9IjAiIHN0eWxlPSJmaWxsOiM3ZmJhMDAiIGQ9Im0gNDEuMjksNy43OSBjIDAsMy4wNSAtOC4xNiw1LjQ4IC0xOC4yNyw1LjQ4IC0xMC4xMSwwIC0xOC4yNywtMi40MyAtMTguMjcsLTUuNDggMCwtMy4wNCA4LjE2LC01LjQ4IDE4LjI3LC01LjQ4IDEwLjExLDAgMTguMjcsMi40NCAxOC4yNyw1LjQ4IHoiLz4mI3hhOyYjeGE7PHBhdGggaWQ9InBhdGg5OTM0OCIgaW5rc2NhcGU6Y29ubmVjdG9yLWN1cnZhdHVyZT0iMCIgc3R5bGU9ImZpbGw6I2I4ZDQzMiIgZD0ibSAzNy41MSwxMS4yIGMgMi40NCwtMC45NyAzLjc4LC0yLjA3IDMuNzgsLTMuNDEgMCwtMy4wNCAtOC4xNiwtNS40OCAtMTguMjcsLTUuNDggLTEwLjExLDAgLTE4LjI3LDIuNDQgLTE4LjI3LDUuNDggMCwxLjIyIDEuNDYsMi40NCAzLjc4LDMuNDEgMy4yOCwtMS4zNCA4LjUyLC0yLjE5IDE0LjQ5LC0yLjE5IDUuODQsMCAxMS4wOCwwLjg1IDE0LjQ5LDIuMTkgeiIvPiYjeGE7PHBhdGggZD0ibSAxNi40NDE2NDcsNTAuOTAzNTcgYyAtMS44MywwIC0zLjI5LC0wLjI0IC00LjI2LC0wLjYxIC0xLjEsLTAuMzYgLTEuODMsLTAuOTcgLTIuMzIsLTEuNyAtMC40OCwtMC44NSAtMC43MywtMi4wNyAtMC43MywtMy42NSB2IC0yLjY4IGMgMCwtMS43MSAtMC43MywtMi42OCAtMi4xOSwtMi42OCB2IC0zLjI5IGMgMS40NiwwIDIuMTksLTAuODUgMi4xOSwtMi42OCB2IC0yLjQ0IGMgMCwtMS43IDAuMjUsLTMuMDQgMC43MywtMy43NyAwLjQ5LC0wLjg1IDEuMjIsLTEuMzQgMi4xOSwtMS44MyAxLjEsLTAuMzYgMi40NCwtMC42MSA0LjI3LC0wLjYxIHYgMy4yOSBjIC0wLjg2LDAgLTEuMzQsMC4xMiAtMS44MywwLjQ5IC0wLjM2LDAuMzYgLTAuNjEsMC45NyAtMC42MSwxLjgyIHYgMi4wNyBjIDAsMS4zNCAtMC4xMiwyLjQ0IC0wLjQ5LDMuMjkgLTAuMzYsMC44NiAtMC45NywxLjQ2IC0xLjgyLDEuODMgMC44NSwwLjM3IDEuNDYsMC45NyAxLjgyLDEuOTUgMC4zNywwLjg1IDAuNjEsMi4wNyAwLjYxLDMuNDEgdiAxLjgzIGMgMCwwLjg1IDAuMTMsMS40NiAwLjQ5LDEuODIgMC4zNywwLjM3IDAuOTcsMC42MSAxLjgzLDAuNjEgdiAzLjUzIHoiIHN0eWxlPSJmaWxsOiNmZmZmZmYiIGlua3NjYXBlOmNvbm5lY3Rvci1jdXJ2YXR1cmU9IjAiIGlkPSJwYXRoOTkzNTgiLz4mI3hhOzxwYXRoIGQ9Im0gMzcuMTQ3MDQ3LDM5LjU4MzU3IGMgLTEuNDYsMCAtMi4xOSwwLjg1IC0yLjE5LDIuNjggdiAyLjQzIGMgMCwxLjcxIC0wLjI1LDMuMDUgLTAuNzQsMy43OCAtMC40OCwwLjg1IC0xLjIxLDEuMzQgLTIuMTksMS44MiAtMS4wOSwwLjM3IC0yLjQzLDAuNjEgLTQuMjYsMC42MSB2IC0zLjI5IGMgMC44NSwwIDEuNDYsLTAuMTIgMS44MywtMC40OCAwLjM2LC0wLjM3IDAuNjEsLTAuOTggMC42MSwtMS44MyB2IC0yLjA3IGMgMCwtMS4zNCAwLjEyLC0yLjQ0IDAuNDgsLTMuMjkgMC4zNywtMC44NSAwLjk4LC0xLjQ2IDEuODMsLTEuODIgLTAuODUsLTAuMzcgLTEuNDYsLTEuMSAtMS44MywtMS45NSAtMC4zNiwtMC44NiAtMC42MSwtMi4wNyAtMC42MSwtMy40MSB2IC0xLjgzIGMgMCwtMC44NSAtMC4xMiwtMS40NiAtMC40OCwtMS44MyAtMC4zNywtMC4zNiAtMC45OCwtMC42MSAtMS44MywtMC42MSB2IC0zLjI4IGMgMS44MywwIDMuMjksMC4yNCA0LjI2LDAuNiAxLjEsMC4zNyAxLjgzLDAuOTggMi4zMiwxLjcxIDAuNDgsMC44NSAwLjczLDIuMDcgMC43MywzLjY1IHYgMi42OCBjIDAsMS43MSAwLjczLDIuNjggMi4xOSwyLjY4IHYgMy4wNSB6IiBzdHlsZT0iZmlsbDojZmZmZmZmIiBpbmtzY2FwZTpjb25uZWN0b3ItY3VydmF0dXJlPSIwIiBpZD0icGF0aDk5MzY2Ii8+JiN4YTs8L3N2Zz4=;" parent="SliKgruhRy5jez4xbi1P-105" vertex="1">
          <mxGeometry x="180" y="59.80000000000001" width="29.18" height="38.7" as="geometry" />
        </mxCell>
        <mxCell id="SliKgruhRy5jez4xbi1P-64" value="cdc" style="shape=image;verticalLabelPosition=bottom;labelBackgroundColor=#ffffff;verticalAlign=top;aspect=fixed;imageAspect=0;image=data:image/svg+xml,PHN2ZyB4bWxuczpkYz0iaHR0cDovL3B1cmwub3JnL2RjL2VsZW1lbnRzLzEuMS8iIHhtbG5zOmNjPSJodHRwOi8vY3JlYXRpdmVjb21tb25zLm9yZy9ucyMiIHhtbG5zOnJkZj0iaHR0cDovL3d3dy53My5vcmcvMTk5OS8wMi8yMi1yZGYtc3ludGF4LW5zIyIgeG1sbnM6c3ZnPSJodHRwOi8vd3d3LnczLm9yZy8yMDAwL3N2ZyIgeG1sbnM9Imh0dHA6Ly93d3cudzMub3JnLzIwMDAvc3ZnIiB4bWxuczpzb2RpcG9kaT0iaHR0cDovL3NvZGlwb2RpLnNvdXJjZWZvcmdlLm5ldC9EVEQvc29kaXBvZGktMC5kdGQiIHhtbG5zOmlua3NjYXBlPSJodHRwOi8vd3d3Lmlua3NjYXBlLm9yZy9uYW1lc3BhY2VzL2lua3NjYXBlIiB2ZXJzaW9uPSIxLjEiIGlkPSJzdmc5OTM3MyIgaW5rc2NhcGU6dmVyc2lvbj0iMC45Mi4zICgyNDA1NTQ2LCAyMDE4LTAzLTExKSIgc29kaXBvZGk6ZG9jbmFtZT0iZG9jdW1lbnRkYi5zdmciIHg9IjBweCIgeT0iMHB4IiB2aWV3Qm94PSIwIDAgNDYuMDMgNjAuODkiIHhtbDpzcGFjZT0icHJlc2VydmUiIHdpZHRoPSI0Ni4wMjk5OTkiIGhlaWdodD0iNjAuODg5OTk5Ij48bWV0YWRhdGEgaWQ9Im1ldGFkYXRhNzMxIj48cmRmOlJERj48Y2M6V29yayByZGY6YWJvdXQ9IiI+PGRjOmZvcm1hdD5pbWFnZS9zdmcreG1sPC9kYzpmb3JtYXQ+PGRjOnR5cGUgcmRmOnJlc291cmNlPSJodHRwOi8vcHVybC5vcmcvZGMvZGNtaXR5cGUvU3RpbGxJbWFnZSIvPjxkYzp0aXRsZS8+PC9jYzpXb3JrPjwvcmRmOlJERj48L21ldGFkYXRhPjxkZWZzIGlkPSJkZWZzNzI5Ij4mI3hhOwkmI3hhOyYjeGE7CSYjeGE7JiN4YTsJJiN4YTsmI3hhOwkmI3hhOyYjeGE7CSYjeGE7JiN4YTsJJiN4YTsJJiN4YTsJJiN4YTsmI3hhOwkmI3hhOwkmI3hhOwkmI3hhOyYjeGE7CQkmI3hhOwkmI3hhOwkJJiN4YTsJJiN4YTsJCSYjeGE7CSYjeGE7CQkmI3hhOwkmI3hhOwkJJiN4YTsJJiN4YTsJCSYjeGE7CSYjeGE7CQkmI3hhOwkmI3hhOwkJCSYjeGE7CQkmI3hhOwkJCSYjeGE7CQk8L2RlZnM+JiN4YTs8ZmlsdGVyIGlkPSJmaWx0ZXJfMiI+JiN4YTsJPGZlR2F1c3NpYW5CbHVyIGlkPSJmZUdhdXNzaWFuQmx1cjk5MzAzIiBzdGREZXZpYXRpb249IjIiLz4mI3hhOzwvZmlsdGVyPiYjeGE7PHNvZGlwb2RpOm5hbWVkdmlldyBib3JkZXJjb2xvcj0iIzY2NjY2NiIgYm9yZGVyb3BhY2l0eT0iMSIgZml0LW1hcmdpbi1ib3R0b209IjAiIGZpdC1tYXJnaW4tbGVmdD0iMCIgZml0LW1hcmdpbi1yaWdodD0iMCIgZml0LW1hcmdpbi10b3A9IjAiIGdyaWR0b2xlcmFuY2U9IjEwIiBndWlkZXRvbGVyYW5jZT0iMTAiIGlkPSJuYW1lZHZpZXc5OTM3NSIgaW5rc2NhcGU6Y3VycmVudC1sYXllcj0ic3ZnOTkzNzMiIGlua3NjYXBlOmN4PSItMjkuMzEwMTI1IiBpbmtzY2FwZTpjeT0iNDAuNTkxMjM5IiBpbmtzY2FwZTpwYWdlb3BhY2l0eT0iMCIgaW5rc2NhcGU6cGFnZXNoYWRvdz0iMiIgaW5rc2NhcGU6d2luZG93LWhlaWdodD0iMTAxNyIgaW5rc2NhcGU6d2luZG93LW1heGltaXplZD0iMSIgaW5rc2NhcGU6d2luZG93LXdpZHRoPSIxOTIwIiBpbmtzY2FwZTp3aW5kb3cteD0iLTgiIGlua3NjYXBlOndpbmRvdy15PSItOCIgaW5rc2NhcGU6em9vbT0iNy42MTY2MTYiIG9iamVjdHRvbGVyYW5jZT0iMTAiIHBhZ2Vjb2xvcj0iI2ZmZmZmZiIgc2hvd2dyaWQ9ImZhbHNlIj4mI3hhOwk8L3NvZGlwb2RpOm5hbWVkdmlldz4mI3hhOyYjeGE7PHBhdGggaWQ9InBhdGg5OTMxNiIgaW5rc2NhcGU6Y29ubmVjdG9yLWN1cnZhdHVyZT0iMCIgc3R5bGU9ImZpbGw6IzM5OTljNiIgZD0ibSAwLDguMjggdiA0NC4yMSBjIDAsNC42MyAxMC4yMyw4LjI4IDIzLjAyLDguMjggViA4LjI4IFoiLz4mI3hhOyYjeGE7PHBhdGggaWQ9InBhdGg5OTMyNCIgaW5rc2NhcGU6Y29ubmVjdG9yLWN1cnZhdHVyZT0iMCIgc3R5bGU9ImZpbGw6IzU5YjRkOSIgZD0ibSAyMi42NSw2MC44OSBoIDAuMzcgYyAxMi42NiwwIDIzLjAxLC0zLjc3IDIzLjAxLC04LjI4IFYgOC4yOCBIIDIyLjY1IFoiLz4mI3hhOyYjeGE7PHBhdGggaWQ9InBhdGg5OTMzMiIgaW5rc2NhcGU6Y29ubmVjdG9yLWN1cnZhdHVyZT0iMCIgc3R5bGU9ImZpbGw6I2ZmZmZmZiIgZD0ibSA0Ni4wMyw4LjI4IGMgMCw0LjYzIC0xMC4yMyw4LjI4IC0yMy4wMSw4LjI4IEMgMTAuMjMsMTYuNTYgMCwxMi45MSAwLDguMjggMCwzLjc4IDEwLjM1LDAgMjMuMDIsMCAzNS42OCwwIDQ2LjAzLDMuNzggNDYuMDMsOC4yOCBaIi8+JiN4YTsmI3hhOzxwYXRoIGlkPSJwYXRoOTkzNDAiIGlua3NjYXBlOmNvbm5lY3Rvci1jdXJ2YXR1cmU9IjAiIHN0eWxlPSJmaWxsOiM3ZmJhMDAiIGQ9Im0gNDEuMjksNy43OSBjIDAsMy4wNSAtOC4xNiw1LjQ4IC0xOC4yNyw1LjQ4IC0xMC4xMSwwIC0xOC4yNywtMi40MyAtMTguMjcsLTUuNDggMCwtMy4wNCA4LjE2LC01LjQ4IDE4LjI3LC01LjQ4IDEwLjExLDAgMTguMjcsMi40NCAxOC4yNyw1LjQ4IHoiLz4mI3hhOyYjeGE7PHBhdGggaWQ9InBhdGg5OTM0OCIgaW5rc2NhcGU6Y29ubmVjdG9yLWN1cnZhdHVyZT0iMCIgc3R5bGU9ImZpbGw6I2I4ZDQzMiIgZD0ibSAzNy41MSwxMS4yIGMgMi40NCwtMC45NyAzLjc4LC0yLjA3IDMuNzgsLTMuNDEgMCwtMy4wNCAtOC4xNiwtNS40OCAtMTguMjcsLTUuNDggLTEwLjExLDAgLTE4LjI3LDIuNDQgLTE4LjI3LDUuNDggMCwxLjIyIDEuNDYsMi40NCAzLjc4LDMuNDEgMy4yOCwtMS4zNCA4LjUyLC0yLjE5IDE0LjQ5LC0yLjE5IDUuODQsMCAxMS4wOCwwLjg1IDE0LjQ5LDIuMTkgeiIvPiYjeGE7PHBhdGggZD0ibSAxNi40NDE2NDcsNTAuOTAzNTcgYyAtMS44MywwIC0zLjI5LC0wLjI0IC00LjI2LC0wLjYxIC0xLjEsLTAuMzYgLTEuODMsLTAuOTcgLTIuMzIsLTEuNyAtMC40OCwtMC44NSAtMC43MywtMi4wNyAtMC43MywtMy42NSB2IC0yLjY4IGMgMCwtMS43MSAtMC43MywtMi42OCAtMi4xOSwtMi42OCB2IC0zLjI5IGMgMS40NiwwIDIuMTksLTAuODUgMi4xOSwtMi42OCB2IC0yLjQ0IGMgMCwtMS43IDAuMjUsLTMuMDQgMC43MywtMy43NyAwLjQ5LC0wLjg1IDEuMjIsLTEuMzQgMi4xOSwtMS44MyAxLjEsLTAuMzYgMi40NCwtMC42MSA0LjI3LC0wLjYxIHYgMy4yOSBjIC0wLjg2LDAgLTEuMzQsMC4xMiAtMS44MywwLjQ5IC0wLjM2LDAuMzYgLTAuNjEsMC45NyAtMC42MSwxLjgyIHYgMi4wNyBjIDAsMS4zNCAtMC4xMiwyLjQ0IC0wLjQ5LDMuMjkgLTAuMzYsMC44NiAtMC45NywxLjQ2IC0xLjgyLDEuODMgMC44NSwwLjM3IDEuNDYsMC45NyAxLjgyLDEuOTUgMC4zNywwLjg1IDAuNjEsMi4wNyAwLjYxLDMuNDEgdiAxLjgzIGMgMCwwLjg1IDAuMTMsMS40NiAwLjQ5LDEuODIgMC4zNywwLjM3IDAuOTcsMC42MSAxLjgzLDAuNjEgdiAzLjUzIHoiIHN0eWxlPSJmaWxsOiNmZmZmZmYiIGlua3NjYXBlOmNvbm5lY3Rvci1jdXJ2YXR1cmU9IjAiIGlkPSJwYXRoOTkzNTgiLz4mI3hhOzxwYXRoIGQ9Im0gMzcuMTQ3MDQ3LDM5LjU4MzU3IGMgLTEuNDYsMCAtMi4xOSwwLjg1IC0yLjE5LDIuNjggdiAyLjQzIGMgMCwxLjcxIC0wLjI1LDMuMDUgLTAuNzQsMy43OCAtMC40OCwwLjg1IC0xLjIxLDEuMzQgLTIuMTksMS44MiAtMS4wOSwwLjM3IC0yLjQzLDAuNjEgLTQuMjYsMC42MSB2IC0zLjI5IGMgMC44NSwwIDEuNDYsLTAuMTIgMS44MywtMC40OCAwLjM2LC0wLjM3IDAuNjEsLTAuOTggMC42MSwtMS44MyB2IC0yLjA3IGMgMCwtMS4zNCAwLjEyLC0yLjQ0IDAuNDgsLTMuMjkgMC4zNywtMC44NSAwLjk4LC0xLjQ2IDEuODMsLTEuODIgLTAuODUsLTAuMzcgLTEuNDYsLTEuMSAtMS44MywtMS45NSAtMC4zNiwtMC44NiAtMC42MSwtMi4wNyAtMC42MSwtMy40MSB2IC0xLjgzIGMgMCwtMC44NSAtMC4xMiwtMS40NiAtMC40OCwtMS44MyAtMC4zNywtMC4zNiAtMC45OCwtMC42MSAtMS44MywtMC42MSB2IC0zLjI4IGMgMS44MywwIDMuMjksMC4yNCA0LjI2LDAuNiAxLjEsMC4zNyAxLjgzLDAuOTggMi4zMiwxLjcxIDAuNDgsMC44NSAwLjczLDIuMDcgMC43MywzLjY1IHYgMi42OCBjIDAsMS43MSAwLjczLDIuNjggMi4xOSwyLjY4IHYgMy4wNSB6IiBzdHlsZT0iZmlsbDojZmZmZmZmIiBpbmtzY2FwZTpjb25uZWN0b3ItY3VydmF0dXJlPSIwIiBpZD0icGF0aDk5MzY2Ii8+JiN4YTs8L3N2Zz4=;" parent="SliKgruhRy5jez4xbi1P-105" vertex="1">
          <mxGeometry x="37" y="59.80000000000001" width="29.18" height="38.7" as="geometry" />
        </mxCell>
        <mxCell id="SliKgruhRy5jez4xbi1P-108" value="" style="image;aspect=fixed;html=1;points=[];align=center;fontSize=12;image=img/lib/azure2/networking/Private_Endpoint.svg;" parent="SliKgruhRy5jez4xbi1P-105" vertex="1">
          <mxGeometry y="120" width="25.93" height="23.77" as="geometry" />
        </mxCell>
        <mxCell id="wVpr-9VvbVRUstRmstYV-28" value="" style="image;aspect=fixed;html=1;points=[];align=center;fontSize=12;image=img/lib/azure2/identity/Azure_Active_Directory.svg;" parent="wVpr-9VvbVRUstRmstYV-13" vertex="1">
          <mxGeometry x="-0.990000000000002" y="730" width="70" height="64" as="geometry" />
        </mxCell>
        <mxCell id="wVpr-9VvbVRUstRmstYV-22" value="" style="image;sketch=0;aspect=fixed;html=1;points=[];align=center;fontSize=12;image=img/lib/mscae/Key.svg;" parent="wVpr-9VvbVRUstRmstYV-12" vertex="1">
          <mxGeometry x="13.140495867768596" y="-8.179503586075572e-15" width="24.174418604651162" height="38.98988372093023" as="geometry" />
        </mxCell>
        <mxCell id="SliKgruhRy5jez4xbi1P-67" value="" style="shape=image;verticalLabelPosition=bottom;labelBackgroundColor=#ffffff;verticalAlign=top;aspect=fixed;imageAspect=0;image=data:image/svg+xml,PHN2ZyB4bWxuczpjYz0iaHR0cDovL2NyZWF0aXZlY29tbW9ucy5vcmcvbnMjIiB4bWxuczpkYz0iaHR0cDovL3B1cmwub3JnL2RjL2VsZW1lbnRzLzEuMS8iIHhtbG5zOmlua3NjYXBlPSJodHRwOi8vd3d3Lmlua3NjYXBlLm9yZy9uYW1lc3BhY2VzL2lua3NjYXBlIiB4bWxuczpyZGY9Imh0dHA6Ly93d3cudzMub3JnLzE5OTkvMDIvMjItcmRmLXN5bnRheC1ucyMiIHhtbG5zOnNvZGlwb2RpPSJodHRwOi8vc29kaXBvZGkuc291cmNlZm9yZ2UubmV0L0RURC9zb2RpcG9kaS0wLmR0ZCIgeG1sbnM6c3ZnPSJodHRwOi8vd3d3LnczLm9yZy8yMDAwL3N2ZyIgeG1sbnM9Imh0dHA6Ly93d3cudzMub3JnLzIwMDAvc3ZnIiB4bWxuczp4bGluaz0iaHR0cDovL3d3dy53My5vcmcvMTk5OS94bGluayIgdmVyc2lvbj0iMS4xIiBpZD0ic3ZnODAzNDYiIGlua3NjYXBlOnZlcnNpb249IjAuOTIuMyAoMjQwNTU0NiwgMjAxOC0wMy0xMSkiIHNvZGlwb2RpOmRvY25hbWU9ImV4cHJlc3Nfcm91dGUuc3ZnIiB4PSIwcHgiIHk9IjBweCIgdmlld0JveD0iMCAwIDQxLjE0IDI1LjE0IiBzdHlsZT0iZW5hYmxlLWJhY2tncm91bmQ6bmV3IDAgMCA0MS4xNCAyNS4xNDsiIHhtbDpzcGFjZT0icHJlc2VydmUiPiYjeGE7PHNvZGlwb2RpOm5hbWVkdmlldyBib3JkZXJjb2xvcj0iIzY2NjY2NiIgYm9yZGVyb3BhY2l0eT0iMSIgZml0LW1hcmdpbi1ib3R0b209IjAiIGZpdC1tYXJnaW4tbGVmdD0iMCIgZml0LW1hcmdpbi1yaWdodD0iMCIgZml0LW1hcmdpbi10b3A9IjAiIGdyaWR0b2xlcmFuY2U9IjEwIiBndWlkZXRvbGVyYW5jZT0iMTAiIGlkPSJuYW1lZHZpZXc4MDM0OCIgaW5rc2NhcGU6Y3VycmVudC1sYXllcj0ic3ZnODAzNDYiIGlua3NjYXBlOmN4PSIzMC4wNTkwMzEiIGlua3NjYXBlOmN5PSIxNC4zODc2MTQiIGlua3NjYXBlOnBhZ2VvcGFjaXR5PSIwIiBpbmtzY2FwZTpwYWdlc2hhZG93PSIyIiBpbmtzY2FwZTp3aW5kb3ctaGVpZ2h0PSIxMDE3IiBpbmtzY2FwZTp3aW5kb3ctbWF4aW1pemVkPSIxIiBpbmtzY2FwZTp3aW5kb3ctd2lkdGg9IjE5MjAiIGlua3NjYXBlOndpbmRvdy14PSItOCIgaW5rc2NhcGU6d2luZG93LXk9Ii04IiBpbmtzY2FwZTp6b29tPSIxOC4yOTI4MTUiIG9iamVjdHRvbGVyYW5jZT0iMTAiIHBhZ2Vjb2xvcj0iI2ZmZmZmZiIgc2hvd2dyaWQ9ImZhbHNlIj4mI3hhOwk8L3NvZGlwb2RpOm5hbWVkdmlldz4mI3hhOzxnIGlkPSJnODAzNDQiIHRyYW5zZm9ybT0idHJhbnNsYXRlKC00LjI4NjIwMTNlLTUsMC4wMDEzKSI+JiN4YTsJPHRpdGxlIGlkPSJ0aXRsZTgwMzA0Ij5QYWdlLTE8L3RpdGxlPiYjeGE7CTxnIGlkPSJncm91cDQ3MzYtMSI+JiN4YTsJCTx0aXRsZSBpZD0idGl0bGU4MDMwNiI+RXhwcmVzcyBSb3V0ZTwvdGl0bGU+JiN4YTsJCTxnIGlkPSJzaGFwZTQ3MzctMiI+JiN4YTsJCQk8dGl0bGUgaWQ9InRpdGxlODAzMDgiPlNoZWV0LjQ3Mzc8L3RpdGxlPiYjeGE7CQkJPHBhdGggaWQ9InBhdGg4MDMxMCIgaW5rc2NhcGU6Y29ubmVjdG9yLWN1cnZhdHVyZT0iMCIgc3R5bGU9ImZpbGw6IzY4MjE3QTsiIGQ9Ik0zNi40OSwxNS44OWMtMC42NSwwLTEuMzEsMC4xNi0xLjksMC40NiAgICAgbC05LjgtOS44MWMwLjI2LTAuNTUsMC40LTEuMiwwLjQtMS45MWMwLTIuNTYtMi4wNy00LjYzLTQuNi00LjYzYy0yLjU3LDAtNC42NCwyLjA3LTQuNjQsNC42M2MwLDAuNzEsMC4yMSwxLjM2LDAuNDYsMS45MSAgICAgTDYuNTYsMTYuNGMtMC41OS0wLjMxLTEuMjYtMC40Ni0xLjk2LTAuNDZDMi4wNywxNS45NCwwLDE4LDAsMjAuNTJjMCwyLjU2LDIuMDcsNC42Miw0LjYsNC42MmMyLjAyLDAsMy42OC0xLjI1LDQuMzQtMy4wMUgzMi4yICAgICBjMC42NywxLjcxLDIuMzMsMi45Niw0LjI5LDIuOTZjMi41OSwwLDQuNjQtMi4wNSw0LjY0LTQuNjNDNDEuMTMsMTcuOTYsMzkuMDgsMTUuODksMzYuNDksMTUuODl6IE00LjYsMjIuMDIgICAgIGMtMC44MSwwLTEuNTEtMC42NS0xLjUxLTEuNWMwLTAuOCwwLjctMS41MSwxLjUxLTEuNTFjMC44NSwwLDEuNTIsMC43MSwxLjUyLDEuNTFDNi4xMiwyMS4zNyw1LjQ1LDIyLjAyLDQuNiwyMi4wMnogTTIwLjU5LDMuMTMgICAgIGMwLjgyLDAsMS41MiwwLjY1LDEuNTIsMS41YzAsMC44LTAuNywxLjUtMS41MiwxLjVjLTAuODUsMC0xLjUxLTAuNy0xLjUxLTEuNUMxOS4wOCwzLjc4LDE5Ljc0LDMuMTMsMjAuNTksMy4xM3ogTTMyLjE2LDE4Ljk2ICAgICBIOC45NGMtMC4wNS0wLjExLTAuMS0wLjI2LTAuMTYtMC4zNWw5LjkxLTkuODFjMC41NSwwLjI2LDEuMiwwLjQxLDEuOSwwLjQxYzAuNzIsMCwxLjMyLTAuMTUsMS45My0wLjQxbDkuODMsOS43NSAgICAgQzMyLjI2LDE4LjcsMzIuMiwxOC44MSwzMi4xNiwxOC45NnogTTM2LjQ5LDIxLjk4Yy0wLjgsMC0xLjQ2LTAuNjYtMS40Ni0xLjUyYzAtMC44LDAuNjYtMS40NSwxLjQ2LTEuNDUgICAgIGMwLjg3LDAsMS41MiwwLjY1LDEuNTIsMS40NUMzOC4wMSwyMS4zMiwzNy4zNiwyMS45OCwzNi40OSwyMS45OHoiLz4mI3hhOwkJPC9nPiYjeGE7CQk8ZyBpZD0ic2hhcGU0NzM4LTQiIHRyYW5zZm9ybT0idHJhbnNsYXRlKDE1LjgwNDMsLTE1LjYwMTMpIj4mI3hhOwkJCTx0aXRsZSBpZD0idGl0bGU4MDMxMyI+U2hlZXQuNDczODwvdGl0bGU+JiN4YTsJCQk8cGF0aCBpZD0icGF0aDgwMzE1IiBpbmtzY2FwZTpjb25uZWN0b3ItY3VydmF0dXJlPSIwIiBzdHlsZT0iZmlsbDojN0ZCQTAwOyIgZD0iTTAsMjAuMzdjMC0yLjYzLDIuMTQtNC43Nyw0Ljc2LTQuNzcgICAgIGMyLjY0LDAsNC43NywyLjE0LDQuNzcsNC43N2MwLDIuNjQtMi4xMyw0Ljc3LTQuNzcsNC43N0MyLjE0LDI1LjE0LDAsMjMuMDEsMCwyMC4zN3oiLz4mI3hhOwkJPC9nPiYjeGE7CQk8ZyBpZD0ic2hhcGU0NzM5LTYiPiYjeGE7CQkJPHRpdGxlIGlkPSJ0aXRsZTgwMzE4Ij5TaGVldC40NzM5PC90aXRsZT4mI3hhOwkJCTxwYXRoIGlkPSJwYXRoODAzMjAiIGlua3NjYXBlOmNvbm5lY3Rvci1jdXJ2YXR1cmU9IjAiIHN0eWxlPSJmaWxsOiM3RkJBMDA7IiBkPSJNMCwyMC40OGMwLTIuNTgsMi4xNC00LjY2LDQuNzYtNC42NiAgICAgYzIuNjQsMCw0Ljc3LDIuMDgsNC43Nyw0LjY2YzAsMi41Ny0yLjEzLDQuNjYtNC43Nyw0LjY2QzIuMTQsMjUuMTQsMCwyMy4wNSwwLDIwLjQ4eiIvPiYjeGE7CQk8L2c+JiN4YTsJCTxnIGlkPSJzaGFwZTQ3NDAtOCIgdHJhbnNmb3JtPSJ0cmFuc2xhdGUoMzEuNjA4NikiPiYjeGE7CQkJPHRpdGxlIGlkPSJ0aXRsZTgwMzIzIj5TaGVldC40NzQwPC90aXRsZT4mI3hhOwkJCTxwYXRoIGlkPSJwYXRoODAzMjUiIGlua3NjYXBlOmNvbm5lY3Rvci1jdXJ2YXR1cmU9IjAiIHN0eWxlPSJmaWxsOiM3RkJBMDA7IiBkPSJNMCwyMC40OGMwLTIuNTgsMi4xNC00LjY2LDQuNzYtNC42NiAgICAgYzIuNjQsMCw0Ljc3LDIuMDgsNC43Nyw0LjY2YzAsMi41Ny0yLjEzLDQuNjYtNC43Nyw0LjY2QzIuMTQsMjUuMTQsMCwyMy4wNSwwLDIwLjQ4eiIvPiYjeGE7CQk8L2c+JiN4YTsJCTxnIGlkPSJzaGFwZTQ3NDEtMTAiIHRyYW5zZm9ybT0idHJhbnNsYXRlKDE4LjcyNywtMTguNTI2NSkiPiYjeGE7CQkJPHRpdGxlIGlkPSJ0aXRsZTgwMzI4Ij5TaGVldC40NzQxPC90aXRsZT4mI3hhOwkJCTxwYXRoIGlkPSJwYXRoODAzMzAiIGlua3NjYXBlOmNvbm5lY3Rvci1jdXJ2YXR1cmU9IjAiIHN0eWxlPSJmaWxsOiNGRkZGRkY7IiBkPSJNMCwyMy4yOWMwLTEuMDEsMC44My0xLjg0LDEuODQtMS44NCAgICAgYzEuMDMsMCwxLjg0LDAuODMsMS44NCwxLjg0YzAsMS4wMy0wLjgxLDEuODUtMS44NCwxLjg1QzAuODMsMjUuMTQsMCwyNC4zMiwwLDIzLjI5eiIvPiYjeGE7CQk8L2c+JiN4YTsJCTxnIGlkPSJzaGFwZTQ3NDItMTIiIHRyYW5zZm9ybT0idHJhbnNsYXRlKDIuODE0NDYsLTIuODE2ODkpIj4mI3hhOwkJCTx0aXRsZSBpZD0idGl0bGU4MDMzMyI+U2hlZXQuNDc0MjwvdGl0bGU+JiN4YTsJCQk8cGF0aCBpZD0icGF0aDgwMzM1IiBpbmtzY2FwZTpjb25uZWN0b3ItY3VydmF0dXJlPSIwIiBzdHlsZT0iZmlsbDojRkZGRkZGOyIgZD0iTTAsMjMuMjljMC0xLjAxLDAuODMtMS44NCwxLjg0LTEuODQgICAgIGMxLjAzLDAsMS44NCwwLjgzLDEuODQsMS44NGMwLDEuMDMtMC44MSwxLjg1LTEuODQsMS44NUMwLjgzLDI1LjE0LDAsMjQuMzIsMCwyMy4yOXoiLz4mI3hhOwkJPC9nPiYjeGE7CQk8ZyBpZD0ic2hhcGU0NzQzLTE0IiB0cmFuc2Zvcm09InRyYW5zbGF0ZSgzNC41MzEzLC0yLjgxNjg5KSI+JiN4YTsJCQk8dGl0bGUgaWQ9InRpdGxlODAzMzgiPlNoZWV0LjQ3NDM8L3RpdGxlPiYjeGE7CQkJPHBhdGggaWQ9InBhdGg4MDM0MCIgaW5rc2NhcGU6Y29ubmVjdG9yLWN1cnZhdHVyZT0iMCIgc3R5bGU9ImZpbGw6I0ZGRkZGRjsiIGQ9Ik0wLDIzLjI5YzAtMS4wMSwwLjgzLTEuODQsMS44NC0xLjg0ICAgICBjMS4wMywwLDEuODQsMC44MywxLjg0LDEuODRjMCwxLjAzLTAuODEsMS44NS0xLjg0LDEuODVDMC44MywyNS4xNCwwLDI0LjMyLDAsMjMuMjl6Ii8+JiN4YTsJCTwvZz4mI3hhOwk8L2c+JiN4YTs8L2c+JiN4YTs8L3N2Zz4=;" parent="1" vertex="1">
          <mxGeometry x="-143.7" y="480" width="57.4" height="35" as="geometry" />
        </mxCell>
        <mxCell id="SliKgruhRy5jez4xbi1P-74" style="edgeStyle=orthogonalEdgeStyle;rounded=0;orthogonalLoop=1;jettySize=auto;html=1;entryX=0;entryY=0.5;entryDx=0;entryDy=0;startArrow=classic;startFill=1;exitX=1;exitY=0.5;exitDx=0;exitDy=0;exitPerimeter=0;" parent="1" source="wVpr-9VvbVRUstRmstYV-18" target="wVpr-9VvbVRUstRmstYV-31" edge="1">
          <mxGeometry relative="1" as="geometry" />
        </mxCell>
        <mxCell id="SliKgruhRy5jez4xbi1P-75" value="&lt;b style=&quot;font-size: 11px;&quot;&gt;Canal Dedicado&lt;/b&gt;&lt;br style=&quot;font-size: 11px;&quot;&gt;&lt;span style=&quot;font-size: 11px; background-color: rgb(255, 255, 255);&quot;&gt;Express Route&lt;/span&gt;" style="text;html=1;align=center;verticalAlign=middle;resizable=0;points=[];autosize=1;strokeColor=none;fillColor=none;" parent="1" vertex="1">
          <mxGeometry x="-170" y="515" width="110" height="40" as="geometry" />
        </mxCell>
        <mxCell id="SliKgruhRy5jez4xbi1P-118" value="&amp;nbsp; &amp;nbsp; &amp;nbsp; &amp;nbsp; &amp;nbsp; &amp;nbsp; &amp;nbsp; &amp;nbsp; &amp;nbsp; &amp;nbsp; &amp;nbsp;&lt;b&gt;Resource Group&amp;nbsp;&lt;/b&gt;" style="rounded=0;whiteSpace=wrap;html=1;horizontal=1;align=left;verticalAlign=top;container=0;" parent="1" vertex="1">
          <mxGeometry x="1090" y="120" width="440" height="680" as="geometry" />
        </mxCell>
        <mxCell id="SliKgruhRy5jez4xbi1P-119" value="&lt;span style=&quot;color: rgba(0, 0, 0, 0); font-family: monospace; font-size: 0px; text-align: start; background-color: rgb(251, 251, 251);&quot;&gt;%3CmxGraphModel%3E%3Croot%3E%3CmxCell%20id%3D%220%22%2F%3E%3CmxCell%20id%3D%221%22%20parent%3D%220%22%2F%3E%3CmxCell%20id%3D%222%22%20value%3D%22%26amp%3Bnbsp%3B%20%26amp%3Bnbsp%3B%20%26amp%3Bnbsp%3B%20%26amp%3Bnbsp%3B%20%26amp%3Bnbsp%3B%20%26amp%3Bnbsp%3B%20%26amp%3Bnbsp%3B%20%26amp%3Bnbsp%3B%20%26amp%3Bnbsp%3B%20%26amp%3Bnbsp%3B%20%26amp%3Bnbsp%3B%26lt%3Bb%26gt%3BResource%20Group%20-%26amp%3Bnbsp%3Brg-gclint-syncro-stream-%5Benv%5D-i%26lt%3B%2Fb%26gt%3B%22%20style%3D%22rounded%3D0%3BwhiteSpace%3Dwrap%3Bhtml%3D1%3Bhorizontal%3D1%3Balign%3Dleft%3BverticalAlign%3Dtop%3Bcontainer%3D0%3B%22%20vertex%3D%221%22%20parent%3D%221%22%3E%3CmxGeometry%20x%3D%2220.000000000000007%22%20y%3D%22120%22%20width%3D%221060%22%20height%3D%22680%22%20as%3D%22geometry%22%2F%3E%3C%2FmxCell%3E%3C%2Froot%3E%3C%2FmxGraphModel%3E&lt;/span&gt;" style="image;sketch=0;aspect=fixed;html=1;points=[];align=center;fontSize=12;image=img/lib/mscae/ResourceGroup.svg;" parent="1" vertex="1">
          <mxGeometry x="1100.0033991025002" y="120.004974" width="44.57904975045071" height="35.656820930706076" as="geometry" />
        </mxCell>
        <mxCell id="SliKgruhRy5jez4xbi1P-121" value="&lt;b&gt;&lt;font style=&quot;font-size: 13px;&quot;&gt;Event Hub&lt;/font&gt;&lt;/b&gt;" style="rounded=1;whiteSpace=wrap;html=1;verticalAlign=top;fillColor=#d5e8d4;strokeColor=#82b366;" parent="1" vertex="1">
          <mxGeometry x="1183" y="271.64" width="195" height="180" as="geometry" />
        </mxCell>
        <mxCell id="SliKgruhRy5jez4xbi1P-120" value="" style="image;sketch=0;aspect=fixed;html=1;points=[];align=center;fontSize=12;image=img/lib/mscae/Event_Hubs.svg;fillColor=#dae8fc;strokeColor=#6c8ebf;" parent="1" vertex="1">
          <mxGeometry x="1183" y="271.64" width="48" height="50" as="geometry" />
        </mxCell>
        <mxCell id="SliKgruhRy5jez4xbi1P-122" style="edgeStyle=orthogonalEdgeStyle;rounded=0;orthogonalLoop=1;jettySize=auto;html=1;" parent="1" source="wVpr-9VvbVRUstRmstYV-31" target="SliKgruhRy5jez4xbi1P-121" edge="1">
          <mxGeometry relative="1" as="geometry" />
        </mxCell>
        <mxCell id="SliKgruhRy5jez4xbi1P-124" value="&lt;b&gt;&lt;font style=&quot;font-size: 20px;&quot;&gt;East US 2&lt;/font&gt;&lt;/b&gt;" style="rounded=0;whiteSpace=wrap;html=1;dashed=1;fillColor=#dae8fc;strokeColor=#6c8ebf;" parent="1" vertex="1">
          <mxGeometry x="1360" y="90" width="170" height="60" as="geometry" />
        </mxCell>
      </root>
    </mxGraphModel>
  </diagram>
  <diagram id="kZ8x1-S3DElp2Ggwd5ws" name="Page-3">
    <mxGraphModel dx="1114" dy="526" grid="1" gridSize="10" guides="1" tooltips="1" connect="1" arrows="1" fold="1" page="1" pageScale="1" pageWidth="827" pageHeight="1169" math="0" shadow="0">
      <root>
        <mxCell id="0" />
        <mxCell id="1" parent="0" />
        <mxCell id="eFtsbr02uYkhw9W94L7c-1" value="&lt;div style=&quot;color: rgb(59, 59, 59); background-color: rgb(255, 255, 255); font-family: Consolas, &amp;quot;Courier New&amp;quot;, monospace; font-size: 14px; line-height: 19px; white-space: pre;&quot;&gt;Function&lt;span style=&quot;color: #098658;&quot;&gt;1&lt;/span&gt;_HttpStart&lt;/div&gt;" style="ellipse;whiteSpace=wrap;html=1;" vertex="1" parent="1">
          <mxGeometry x="140" y="120" width="120" height="80" as="geometry" />
        </mxCell>
        <mxCell id="eFtsbr02uYkhw9W94L7c-2" value="" style="ellipse;whiteSpace=wrap;html=1;" vertex="1" parent="1">
          <mxGeometry x="140" y="220" width="120" height="80" as="geometry" />
        </mxCell>
        <mxCell id="eFtsbr02uYkhw9W94L7c-3" value="" style="ellipse;whiteSpace=wrap;html=1;" vertex="1" parent="1">
          <mxGeometry x="280" y="120" width="120" height="80" as="geometry" />
        </mxCell>
        <mxCell id="eFtsbr02uYkhw9W94L7c-4" value="" style="ellipse;whiteSpace=wrap;html=1;" vertex="1" parent="1">
          <mxGeometry x="280" y="220" width="120" height="80" as="geometry" />
        </mxCell>
        <mxCell id="eFtsbr02uYkhw9W94L7c-5" value="" style="ellipse;whiteSpace=wrap;html=1;" vertex="1" parent="1">
          <mxGeometry x="414" y="120" width="120" height="80" as="geometry" />
        </mxCell>
        <mxCell id="eFtsbr02uYkhw9W94L7c-6" value="" style="ellipse;whiteSpace=wrap;html=1;" vertex="1" parent="1">
          <mxGeometry x="550" y="120" width="120" height="80" as="geometry" />
        </mxCell>
        <mxCell id="eFtsbr02uYkhw9W94L7c-7" value="" style="ellipse;whiteSpace=wrap;html=1;" vertex="1" parent="1">
          <mxGeometry x="414" y="220" width="120" height="80" as="geometry" />
        </mxCell>
        <mxCell id="eFtsbr02uYkhw9W94L7c-8" value="" style="ellipse;whiteSpace=wrap;html=1;" vertex="1" parent="1">
          <mxGeometry x="550" y="220" width="120" height="80" as="geometry" />
        </mxCell>
        <mxCell id="eFtsbr02uYkhw9W94L7c-9" value="" style="ellipse;whiteSpace=wrap;html=1;" vertex="1" parent="1">
          <mxGeometry x="140" y="320" width="120" height="80" as="geometry" />
        </mxCell>
        <mxCell id="eFtsbr02uYkhw9W94L7c-10" value="" style="ellipse;whiteSpace=wrap;html=1;" vertex="1" parent="1">
          <mxGeometry x="140" y="420" width="120" height="80" as="geometry" />
        </mxCell>
        <mxCell id="eFtsbr02uYkhw9W94L7c-11" value="" style="ellipse;whiteSpace=wrap;html=1;" vertex="1" parent="1">
          <mxGeometry x="280" y="320" width="120" height="80" as="geometry" />
        </mxCell>
        <mxCell id="eFtsbr02uYkhw9W94L7c-12" value="" style="ellipse;whiteSpace=wrap;html=1;" vertex="1" parent="1">
          <mxGeometry x="280" y="420" width="120" height="80" as="geometry" />
        </mxCell>
        <mxCell id="eFtsbr02uYkhw9W94L7c-13" value="" style="ellipse;whiteSpace=wrap;html=1;" vertex="1" parent="1">
          <mxGeometry x="414" y="320" width="120" height="80" as="geometry" />
        </mxCell>
        <mxCell id="eFtsbr02uYkhw9W94L7c-14" value="" style="ellipse;whiteSpace=wrap;html=1;" vertex="1" parent="1">
          <mxGeometry x="550" y="320" width="120" height="80" as="geometry" />
        </mxCell>
        <mxCell id="eFtsbr02uYkhw9W94L7c-15" value="" style="ellipse;whiteSpace=wrap;html=1;" vertex="1" parent="1">
          <mxGeometry x="414" y="420" width="120" height="80" as="geometry" />
        </mxCell>
        <mxCell id="eFtsbr02uYkhw9W94L7c-16" value="" style="ellipse;whiteSpace=wrap;html=1;" vertex="1" parent="1">
          <mxGeometry x="560" y="420" width="120" height="80" as="geometry" />
        </mxCell>
      </root>
    </mxGraphModel>
  </diagram>
</mxfile>
